<svg width="22" height="34" viewBox="0 0 22 34" fill="none" xmlns="http://www.w3.org/2000/svg">
<path d="M5.88828 0.931641L4.91094 1.17563C5.00234 4.46414 5.22031 7.90172 5.08672 10.9041C4.94609 14.0892 4.46094 16.8455 2.77344 18.4064V33.2423H19.2266V18.4064C17.5391 16.8455 17.0539 14.0892 16.9133 10.9041C16.7797 7.90172 16.9977 4.46414 17.0891 1.17563L16.1117 0.931641C16.0344 2.48414 15.7391 4.16742 15.0922 5.58984C14.3328 7.26188 12.9688 8.63297 11 8.63297C9.03125 8.63297 7.66719 7.26188 6.90781 5.58984C6.26094 4.16742 5.96563 2.48414 5.88828 0.931641ZM7.16797 1.16578C7.26641 2.51437 7.54766 3.94172 8.06094 5.06672C8.70781 6.48844 9.59375 7.36734 11 7.36734C12.4062 7.36734 13.2922 6.48844 13.9391 5.06672C14.4523 3.94172 14.7336 2.51437 14.832 1.16578C13.1727 1.98633 12.125 2.44547 11 2.44547C9.875 2.44547 8.82734 1.98633 7.16797 1.16578ZM3.65234 1.48852L2.63984 1.74164C2.66797 4.3868 2.90703 7.29 2.77344 9.99703C2.63281 12.7744 2.08438 15.383 0.382812 17.2322V33.2423H1.50781V17.8228L1.74688 17.633C3.06875 16.5642 3.68047 14.0611 3.82109 10.8478C3.94766 8.02828 3.75078 4.72078 3.65234 1.48852ZM18.3477 1.48852C18.2492 4.72078 18.0523 8.02828 18.1789 10.8478C18.3195 14.0611 18.9312 16.5642 20.2531 17.633L20.4922 17.8228V33.2423H21.6172V17.2322C19.9156 15.383 19.3672 12.7744 19.2266 9.99703C19.093 7.29 19.332 4.3868 19.3602 1.74164L18.3477 1.48852ZM13.7703 14.7502C14.4312 14.7502 14.9516 14.947 15.3383 15.3408C15.725 15.7345 15.9148 16.2619 15.9148 16.9158C15.9148 17.3517 15.8094 17.7736 15.6055 18.1814C15.4016 18.5892 15.0852 19.0041 14.6703 19.4259C14.0867 20.0236 13.6859 20.4455 13.482 20.7056C13.2781 20.9658 13.1305 21.2259 13.0391 21.5002H16.0203V22.8713H11.5273V21.7181C11.675 21.2822 11.893 20.8463 12.1742 20.4103C12.4555 19.9673 12.8633 19.4681 13.4047 18.8986C13.8195 18.4556 14.0937 18.1462 14.2203 17.9705C14.3469 17.8017 14.4453 17.64 14.5156 17.4783C14.5859 17.3166 14.6211 17.1548 14.6211 16.9931C14.6211 16.7048 14.5508 16.4869 14.4102 16.3252C14.2625 16.1634 14.0516 16.0791 13.7773 16.0791C13.5031 16.0791 13.2992 16.1775 13.1516 16.3673C13.0039 16.5572 12.9125 16.8384 12.8703 17.2252L11.5836 17.1337C11.6539 16.3533 11.8789 15.7627 12.2516 15.3619C12.6242 14.9541 13.1305 14.7502 13.7703 14.7502ZM8.40547 14.8767H9.83984V19.9322H10.6977V21.1697H9.83984V22.8713H8.62344V21.1697H5.69844V19.9181L8.40547 14.8767ZM8.65859 16.3252C8.58125 16.5431 8.44063 16.8595 8.22969 17.2814L6.77422 19.9322H8.62344V17.4923C8.62344 17.2814 8.62344 17.0494 8.63047 16.8033C8.64453 16.5572 8.65156 16.3955 8.65859 16.3252Z" fill="white"/>
</svg>
