<svg width="28" height="28" viewBox="0 0 28 28" fill="none" xmlns="http://www.w3.org/2000/svg">
<path fill-rule="evenodd" clip-rule="evenodd" d="M19.7705 0.5C20.0285 0.5 20.2865 0.5045 20.5325 0.5975C21.2445 0.784745 21.8629 1.22715 22.27 1.84058C22.6771 2.454 22.8445 3.19566 22.7405 3.9245L22.5035 5.5805L24.092 5.9765C25.0654 6.21999 25.9295 6.78181 26.547 7.57268C27.1644 8.36356 27.4999 9.33812 27.5 10.3415V23C27.5 24.1935 27.0259 25.3381 26.182 26.182C25.3381 27.0259 24.1935 27.5 23 27.5H5C3.80653 27.5 2.66193 27.0259 1.81802 26.182C0.974106 25.3381 0.5 24.1935 0.5 23V10.343C0.50011 9.33962 0.835559 8.36506 1.45304 7.57418C2.07052 6.78331 2.93461 6.22149 3.908 5.978L5.4965 5.5805L5.2595 3.9245C5.15545 3.19566 5.3229 2.454 5.73001 1.84058C6.13712 1.22715 6.75548 0.784745 7.4675 0.5975C7.715 0.5045 7.9715 0.5 8.2295 0.5H19.7705ZM14 7.1L16.88 3.5H11.12L14 7.1ZM19.565 4.946L16.3295 8.99L18.8075 11.729L19.565 4.946ZM8.435 4.946L9.191 11.7275L11.669 8.9885L8.435 4.946ZM20 17C19.6022 17 19.2206 17.158 18.9393 17.4393C18.658 17.7206 18.5 18.1022 18.5 18.5C18.5 18.8978 18.658 19.2794 18.9393 19.5607C19.2206 19.842 19.6022 20 20 20H21.5C21.8978 20 22.2794 19.842 22.5607 19.5607C22.842 19.2794 23 18.8978 23 18.5C23 18.1022 22.842 17.7206 22.5607 17.4393C22.2794 17.158 21.8978 17 21.5 17H20Z" fill="white"/>
</svg>
