<svg width="24" height="24" viewBox="0 0 24 24" fill="none" xmlns="http://www.w3.org/2000/svg">
<path d="M21.8401 3.95392H22.7369C23.0719 3.95392 23.3932 4.08773 23.6301 4.3259C23.8669 4.56408 24 4.88712 24 5.22395V14.1142C24 14.451 23.8669 14.774 23.6301 15.0122C23.3932 15.2504 23.0719 15.3842 22.7369 15.3842H20.2107L14.9436 7.9723C14.6373 7.5413 14.2046 7.2174 13.7061 7.04592C13.2076 6.87444 12.6683 6.86397 12.1636 7.01596L9.02353 7.96341C8.58672 8.09488 8.12266 8.10504 7.68058 7.99279C7.23849 7.88055 6.83486 7.65009 6.5125 7.32585L6.14241 6.95373C6.01028 6.8209 5.9091 6.66025 5.84617 6.48335C5.78324 6.30646 5.76013 6.11773 5.77849 5.93077C5.79686 5.74381 5.85624 5.56327 5.95237 5.40218C6.0485 5.24108 6.17898 5.10343 6.3344 4.99915L13.1564 0.427045C13.5636 0.153874 14.041 0.00556488 14.5305 0.000153552C15.02 -0.00525777 15.5006 0.132462 15.9137 0.396564L21.1631 3.75579C21.3651 3.88489 21.6007 3.9536 21.8401 3.95392ZM3.82338 14.4888L1.78222 16.2846C1.64272 16.4076 1.53187 16.56 1.45755 16.7309C1.38322 16.9018 1.34726 17.087 1.3522 17.2735C1.35714 17.46 1.40288 17.6431 1.48615 17.8098C1.56942 17.9764 1.68819 18.1226 1.83401 18.238L8.3263 23.3689C8.46902 23.4818 8.63429 23.5625 8.81084 23.6054C8.98739 23.6483 9.17107 23.6524 9.34935 23.6175C9.52762 23.5825 9.6963 23.5093 9.84388 23.4029C9.99146 23.2964 10.1145 23.1592 10.2045 23.0006L11.0937 21.4359C11.3585 20.9699 11.4697 20.4316 11.4114 19.8982C11.3531 19.3647 11.1283 18.8636 10.7691 18.4666L7.35624 14.692C6.91118 14.1997 6.29175 13.9025 5.63111 13.8645C4.97047 13.8265 4.32138 14.0507 3.82338 14.4888ZM6.37356 2.68389H1.26309C0.928099 2.68389 0.606826 2.8177 0.369951 3.05587C0.133075 3.29405 0 3.61709 0 3.95392V13.4995C6.76257e-05 14.0117 0.154171 14.512 0.442082 14.9346C0.472707 14.9061 0.503869 14.8781 0.535551 14.8508L2.57544 13.055C3.44697 12.2881 4.58294 11.8958 5.73913 11.9623C6.89533 12.0288 7.9794 12.5488 8.75828 13.4106L12.1711 17.1851C12.7993 17.8796 13.1926 18.7563 13.2947 19.6895C13.3968 20.6226 13.2024 21.5643 12.7395 22.3795L11.9122 23.835C12.2691 23.9711 12.6521 24.0241 13.0323 23.99C13.4125 23.9559 13.7801 23.8356 14.1075 23.6381L19.6777 20.2776C19.8271 20.1874 19.9562 20.0671 20.0571 19.9242C20.158 19.7814 20.2283 19.6191 20.2638 19.4475C20.2993 19.276 20.2991 19.0989 20.2632 18.9275C20.2273 18.7561 20.1566 18.5939 20.0554 18.4513L13.4027 9.07976C13.3261 8.97213 13.2179 8.89126 13.0934 8.84845C12.9688 8.80564 12.8341 8.80304 12.708 8.841L9.56792 9.78717C8.80349 10.0177 7.99124 10.0359 7.21736 9.83985C6.44347 9.64375 5.73681 9.24066 5.17236 8.67335L4.80227 8.30123C4.47183 7.96915 4.21879 7.56748 4.06139 7.12518C3.904 6.68288 3.84617 6.21098 3.89209 5.74349C3.938 5.276 4.08651 4.82458 4.3269 4.42178C4.5673 4.01898 4.89359 3.67484 5.28225 3.41416L6.37356 2.68389Z" fill="white"/>
</svg>
