<svg width="20" height="17" viewBox="0 0 20 17" fill="none" xmlns="http://www.w3.org/2000/svg">
<path d="M18.9999 15C19.2547 15.0003 19.4999 15.0979 19.6852 15.2728C19.8706 15.4478 19.9821 15.687 19.997 15.9414C20.012 16.1958 19.9292 16.4464 19.7656 16.6418C19.602 16.8373 19.37 16.9629 19.1169 16.993L18.9999 17H0.999869C0.744989 16.9997 0.499837 16.9021 0.3145 16.7272C0.129164 16.5522 0.0176337 16.313 0.0026966 16.0586C-0.0122405 15.8042 0.0705433 15.5536 0.234134 15.3582C0.397724 15.1627 0.629773 15.0371 0.882869 15.007L0.999869 15H18.9999ZM16.9999 1.00268e-07C17.5044 -0.000159579 17.9904 0.190406 18.3604 0.533497C18.7304 0.876588 18.957 1.34684 18.9949 1.85L18.9999 2V12C19 12.5046 18.8095 12.9906 18.4664 13.3605C18.1233 13.7305 17.653 13.9572 17.1499 13.995L16.9999 14H2.99987C2.49529 14.0002 2.0093 13.8096 1.63932 13.4665C1.26934 13.1234 1.04271 12.6532 1.00487 12.15L0.999869 12V2C0.999709 1.49542 1.19028 1.00943 1.53337 0.639452C1.87646 0.269471 2.34671 0.0428434 2.84987 0.00500021L2.99987 1.00268e-07H16.9999Z" fill="white"/>
</svg>
