<svg width="32" height="34" viewBox="0 0 32 34" fill="none" xmlns="http://www.w3.org/2000/svg">
<path d="M14.7943 0.000851196C12.9104 0.0220599 11.1351 0.416973 9.50898 1.14669L12.9847 8.7427C13.6561 8.33413 14.3811 7.97179 15.1607 7.66214L16.3513 0.0682157C15.8338 0.0179052 15.3141 -0.00453219 14.7943 0.000851196ZM17.642 0.245793L16.5561 7.18124C17.7351 6.83421 19.0251 6.59416 20.4306 6.47597L20.5965 6.46231L25.3432 3.45405C22.7004 1.74313 20.1045 0.689737 17.6419 0.245865L17.642 0.245793ZM8.34019 1.74428C7.0348 2.49657 5.8425 3.4808 4.79269 4.67855C4.18691 5.36966 3.62844 6.13634 3.12251 6.97232L9.11001 12.3126C9.8939 11.2344 10.8294 10.2826 11.8856 9.4886L8.34026 1.7442L8.34019 1.74428ZM20.2017 7.85309C13.3353 8.53623 9.82135 12.1013 8.17016 17.0352C6.54038 21.9047 6.85262 28.1486 8.04359 34L24.2465 33.9999C23.3289 30.3108 21.6779 28.5689 20.3718 27.0599C19.6713 26.2506 19.0352 25.4876 18.7844 24.4739C18.577 23.6359 18.686 22.6954 19.1442 21.5982C18.3137 21.3243 17.3254 21.3125 16.1352 21.6117L15.8278 20.3064C17.8693 19.7933 19.6839 20.0567 21.052 21.1173C22.3247 22.1041 23.159 23.7163 23.5944 25.804C25.415 26.121 27.4531 26.3636 29.8457 26.487C30.1623 24.287 30.9263 22.1103 32 19.9536C27.3363 16.3566 23.5823 12.1979 20.2017 7.85302L20.2017 7.85309ZM2.46175 8.1608C1.60318 9.85461 0.945218 11.7934 0.525529 13.9528L7.03403 16.323C7.39288 15.3057 7.83531 14.3364 8.37299 13.4314L2.46175 8.1608ZM17.8774 11.2051C18.8471 11.2051 19.6327 12.0146 19.6327 13.0136C19.6327 14.0128 18.847 14.8222 17.8774 14.8222C16.9078 14.8222 16.1222 14.0128 16.1222 13.0136C16.1222 12.0145 16.9079 11.2051 17.8774 11.2051ZM0.298834 15.294C0.0792555 16.8351 -0.0235214 18.4777 0.00452772 20.2143L5.91786 21.3916C6.0625 20.0852 6.29394 18.8158 6.63081 17.6013L0.298834 15.294ZM0.0546253 21.5915C0.122166 22.8335 0.253899 24.1203 0.455825 25.449L5.73686 25.5546C5.7197 24.6056 5.74035 23.6633 5.80008 22.7371L0.0546253 21.5916V21.5915ZM0.682589 26.797C0.899795 27.9799 1.17205 29.195 1.50034 30.4388L6.05308 29.9469C5.92993 28.9295 5.83999 27.9112 5.78696 26.8981L0.682589 26.7971V26.797ZM6.2317 31.2791L1.86442 31.7507C2.07982 32.4911 2.31026 33.2267 2.5556 33.9571H6.69625C6.51981 33.0686 6.36496 32.1756 6.23184 31.2791H6.2317Z" fill="white"/>
</svg>
