<svg width="205" height="38" viewBox="0 0 205 38" fill="none" xmlns="http://www.w3.org/2000/svg">
<path fill-rule="evenodd" clip-rule="evenodd" d="M80.8278 0C79.5004 -4.92823e-06 78.186 0.282903 76.9596 0.832611C75.7332 1.38232 74.6189 2.18804 73.6803 3.20377C72.7417 4.2195 71.9971 5.42537 71.4892 6.75249C70.9812 8.0796 70.7197 9.50198 70.7197 10.9384V10.9437C70.721 13.8438 71.7866 16.6246 73.6821 18.6748C75.5775 20.725 78.1478 21.8767 80.8278 21.8767C80.9162 21.8767 81.0046 21.8754 81.093 21.8729V21.8766H92.7532L92.7531 21.8751H94.3451H96.0499V21.8766C96.0729 21.876 96.096 21.8756 96.119 21.8753C96.1359 21.8751 96.1527 21.8751 96.1696 21.8751C97.3788 21.8751 98.5385 22.3948 99.3938 23.3198C100.249 24.2448 100.73 25.4995 100.731 26.8081V26.8085V26.8107C100.731 28.1198 100.25 29.3752 99.3947 30.3008C98.5394 31.2264 97.3793 31.7464 96.1696 31.7464C96.1297 31.7465 96.0898 31.746 96.0499 31.7449V31.7464H94.3451H85.2434H71.8906V37.7491H95.8397V37.7453C95.9281 37.7478 96.0165 37.7491 96.1049 37.7491C97.4324 37.7491 98.7468 37.4662 99.9732 36.9165C101.2 36.3668 102.314 35.561 103.252 34.5453C104.191 33.5295 104.936 32.3236 105.444 30.9965C105.952 29.6694 106.213 28.247 106.213 26.8105V26.8056C106.212 23.9055 105.146 21.1246 103.251 19.0744C101.355 17.0241 98.7849 15.8724 96.1049 15.8724C96.0165 15.8724 95.9281 15.8737 95.8397 15.8763V15.8724H80.8828H80.8793H80.8792C80.8403 15.8734 80.8015 15.8739 80.7626 15.8739C79.5535 15.8738 78.3939 15.3541 77.5387 14.4291C76.6835 13.5041 76.2027 12.2494 76.202 10.9409V10.9406V10.9383C76.2021 9.62931 76.6826 8.37395 77.538 7.44837C78.3933 6.52279 79.5534 6.00281 80.763 6.0028C80.8029 6.00273 80.8428 6.00324 80.8827 6.00431V6.0028H82.5876H91.6892H105.042V0.00011453H81.0929V0.00396274C81.0046 0.00141888 80.9161 0.000147568 80.8277 0.00011453L80.8278 0ZM45.8616 0C43.1808 4.74025e-05 40.6098 1.15252 38.7142 3.20387C36.8186 5.25523 35.7537 8.03744 35.7537 10.9385V10.9437C35.755 13.8439 36.8206 16.6247 38.7161 18.6749C40.6116 20.7251 43.1818 21.8768 45.8618 21.8768C45.9502 21.8767 46.0386 21.8754 46.127 21.8729V21.8768H57.7872L57.7872 21.8757L57.7872 21.8752H59.3792H61.0841V21.8768C61.124 21.8757 61.1639 21.8751 61.2038 21.8752C62.413 21.8752 63.5727 22.3948 64.428 23.3199C65.2833 24.2449 65.7641 25.4996 65.7648 26.8082V26.8104C65.7648 28.1194 65.2842 29.3748 64.4289 30.3004C63.5735 31.226 62.4134 31.7461 61.2038 31.7461C61.1639 31.7462 61.124 31.7457 61.0841 31.7447V31.7461H59.3792H50.2776H36.9247V31.9001L36.3966 30.3134C35.2947 27.0031 34.1623 23.601 31.6353 16.0133C30.4005 12.3053 29.7289 10.2935 29.3174 9.06508C28.7999 6.65954 27.5453 4.51435 25.7578 2.97859C23.9703 1.44283 21.7551 0.606917 19.4728 0.606879H19.4679C17.3506 0.608075 15.2871 1.32872 13.5686 2.66715C11.8501 4.00558 10.5633 5.89421 9.88995 8.06649C9.69328 8.64427 8.86516 11.1235 7.23668 16.0133C3.23041 28.0431 1.59913 32.9443 0 37.749H6.71893H25.2307H29.9648L27.7248 31.1749H8.90248C11.1692 24.3509 12.877 19.2012 13.0925 18.5228H13.1162L16.2988 7.93093C17.1491 7.03958 18.2863 6.54088 19.47 6.54021H19.4734C20.6085 6.54023 21.7028 6.99828 22.5425 7.82485V7.82642L25.7569 18.5231H25.7807C26.0661 19.4216 28.4883 26.7223 32.1543 37.7498H38.8732H60.875V37.7459C60.9634 37.7485 61.0519 37.7498 61.1403 37.7498C62.4677 37.7498 63.7822 37.4669 65.0085 36.9172C66.2349 36.3675 67.3492 35.5617 68.2878 34.546C69.2265 33.5302 69.971 32.3244 70.479 30.9972C70.9869 29.6701 71.2484 28.2476 71.2483 26.8112V26.8063C71.2471 23.9062 70.1815 21.1252 68.2861 19.075C66.3906 17.0248 63.8203 15.8731 61.1403 15.8731C61.0519 15.8731 60.9634 15.8743 60.875 15.8767V15.8731H45.9182H45.9148C45.8759 15.8742 45.8371 15.8747 45.7983 15.8747C44.5891 15.8747 43.4293 15.355 42.5741 14.43C41.7188 13.5049 41.2379 12.2502 41.2373 10.9417V10.9394C41.2373 9.63039 41.7179 8.37502 42.5732 7.44943C43.4286 6.52385 44.5886 6.00388 45.7983 6.00387C45.8382 6.00383 45.8781 6.00435 45.918 6.00545V6.00387H47.6228H56.7244H70.0774V0.00111514H46.1282V0.00496965C46.0399 0.00242517 45.9515 0.00115225 45.8631 0.00111514L45.8616 0ZM112.504 0.832633C113.73 0.282924 115.044 0 116.372 0L116.372 0.00103077C116.461 0.00106348 116.549 0.00233479 116.638 0.00487898V0.00103077H136.375H140.587H163.996V6.00378H155.833V15.0577V24.9071V26.752C155.832 26.7952 155.832 26.8383 155.833 26.8815C155.833 28.0655 156.226 29.21 156.941 30.1063C157.656 31.0026 158.645 31.591 159.727 31.7641V31.7475H161.159H161.16H169.415H169.957H183.136H183.31H192.412H194.117V31.7459C194.156 31.747 194.196 31.7475 194.236 31.7475C195.446 31.7474 196.606 31.2274 197.461 30.3018C198.317 29.3762 198.797 28.1208 198.797 26.8117V26.8095C198.797 25.5009 198.316 24.2462 197.46 23.3212C196.605 22.3961 195.445 21.8765 194.236 21.8765C194.196 21.8764 194.156 21.8769 194.117 21.878V21.8765H192.412H190.82V21.877V21.878H179.159V21.8742C179.071 21.8768 178.983 21.8781 178.894 21.8781C176.214 21.8781 173.644 20.7264 171.749 18.6762C169.853 16.626 168.788 13.8452 168.786 10.9451V10.9398C168.786 9.50336 169.048 8.08095 169.556 6.75384C170.064 5.42672 170.808 4.22088 171.747 3.20515C172.685 2.18942 173.8 1.38369 175.026 0.833985C176.252 0.284277 177.567 0.0013485 178.894 0.00135145C178.983 0.001397 179.071 0.00268911 179.159 0.00524548V0.00135145H203.109V6.0041H189.756H180.654H178.949V6.00561C178.909 6.00454 178.869 6.00403 178.83 6.0041C177.62 6.00411 176.46 6.52409 175.604 7.44968C174.749 8.37526 174.269 9.63064 174.269 10.9396V10.9419C174.269 12.2503 174.75 13.505 175.605 14.4299C176.46 15.3549 177.62 15.8746 178.829 15.8747C178.868 15.8747 178.907 15.8742 178.946 15.8732H178.949H193.906V15.877C193.994 15.8745 194.083 15.8732 194.171 15.8732C196.851 15.8732 199.422 17.0249 201.317 19.0751C203.213 21.1254 204.278 23.9063 204.279 26.8064V26.8113C204.279 28.2478 204.018 29.6702 203.51 30.9973C203.002 32.3245 202.257 33.5303 201.319 34.5461C200.38 35.5618 199.266 36.3676 198.039 36.9173C196.813 37.467 195.499 37.75 194.171 37.7499C194.083 37.7499 193.994 37.7486 193.906 37.7461V37.7499H183.136H169.957H169.783H160.681H159.655V37.7204C157.108 37.5187 154.727 36.2818 152.989 34.2581C151.251 32.2345 150.285 29.574 150.285 26.8113C150.285 26.7156 150.286 26.6199 150.288 26.5242H150.285V6.00353H148.24H140.586H136.289H127.233H118.131H116.427V6.00502C116.387 6.00395 116.347 6.00346 116.307 6.00353C115.097 6.00353 113.937 6.52353 113.082 7.44915C112.226 8.37477 111.746 9.63019 111.746 10.9392V10.9415C111.747 12.2501 112.227 13.5048 113.083 14.4298C113.938 15.3548 115.098 15.8745 116.307 15.8745H116.318C116.354 15.8744 116.391 15.8739 116.427 15.873V15.8745H116.637H140.586V21.877H118.132H116.637H116.427V21.8785C116.405 21.8779 116.383 21.8774 116.362 21.877C116.355 21.877 116.348 21.877 116.342 21.877C116.33 21.8769 116.319 21.877 116.307 21.877C115.097 21.8771 113.937 22.397 113.082 23.3227C112.227 24.2483 111.746 25.5037 111.746 26.8127V26.815C111.747 28.1235 112.228 29.3783 113.083 30.3033C113.938 31.2284 115.098 31.748 116.307 31.748C116.347 31.7481 116.387 31.7476 116.427 31.7465V31.748H118.132H127.233H140.586V37.7505H116.637V37.7467C116.549 37.7492 116.46 37.7505 116.372 37.7505C113.692 37.7505 111.122 36.5989 109.226 34.5487C107.331 32.4986 106.265 29.7178 106.264 26.8177V26.8124C106.264 25.3271 106.543 23.8574 107.085 22.4928C107.627 21.1282 108.42 19.8974 109.416 18.8754C108.421 17.8539 107.628 16.624 107.086 15.2604C106.544 13.8968 106.264 12.4281 106.264 10.9437V10.9384C106.264 9.50198 106.525 8.0796 107.033 6.75248C107.541 5.42537 108.286 4.21952 109.224 3.20379C110.163 2.18806 111.277 1.38234 112.504 0.832633Z" fill="url(#paint0_linear_342_2070)"/>
<defs>
<linearGradient id="paint0_linear_342_2070" x1="3" y1="-149.125" x2="207.011" y2="-149.125" gradientUnits="userSpaceOnUse">
<stop stop-color="#004C4C"/>
<stop offset="1" stop-color="#6BAFAE"/>
</linearGradient>
</defs>
</svg>
