<svg width="400" height="137" viewBox="0 0 400 137" fill="none" xmlns="http://www.w3.org/2000/svg">
<g opacity="0.4">
<path d="M162.255 97.1608C163.195 97.3019 164.135 97.4194 165.075 97.5135C166.062 97.5605 167.002 97.584 167.895 97.584C173.771 97.584 178.212 96.0088 181.221 92.8583C184.276 89.7079 185.803 84.9822 185.803 78.6813C185.803 73.5089 184.581 69.418 182.137 66.4086C179.74 63.3993 176.191 61.8946 171.491 61.8946C169.987 61.8946 168.647 61.9651 167.472 62.1062C166.344 62.2002 165.381 62.3178 164.582 62.4588C163.689 62.6469 162.913 62.835 162.255 63.0231V97.1608ZM173.042 101.745C172.102 101.886 171.162 101.981 170.222 102.028C169.329 102.028 168.412 102.028 167.472 102.028C166.72 102.028 165.898 102.004 165.005 101.957C164.112 101.91 163.195 101.839 162.255 101.745V105.202C162.255 109.386 162.302 113.054 162.396 116.205C162.49 119.308 162.607 121.988 162.748 124.245C162.936 126.502 163.148 128.407 163.383 129.958C163.618 131.463 163.9 132.709 164.229 133.697V133.979H147.943V133.697C148.272 132.709 148.554 131.44 148.789 129.888C149.071 128.336 149.282 126.432 149.423 124.175C149.611 121.871 149.752 119.143 149.846 115.993C149.94 112.843 149.987 109.151 149.987 104.919V87.1452C149.987 82.9132 149.94 79.2456 149.846 76.1421C149.752 72.9917 149.611 70.2879 149.423 68.0309C149.282 65.7268 149.071 63.7989 148.789 62.2472C148.554 60.6955 148.272 59.4259 147.943 58.4385V58.1563C148.695 58.2034 149.494 58.2504 150.34 58.2974C151.045 58.3444 151.82 58.3914 152.666 58.4385C153.559 58.4385 154.453 58.4385 155.346 58.4385C156.85 58.4385 159.082 58.2974 162.043 58.0153C165.005 57.7331 168.483 57.5921 172.478 57.5921C176.52 57.5921 180.186 58.0858 183.477 59.0733C186.814 60.0607 189.658 61.4714 192.008 63.3052C194.405 65.1391 196.238 67.3726 197.507 70.0058C198.823 72.639 199.481 75.5779 199.481 78.8224C199.481 81.3615 199.129 83.6891 198.423 85.8051C197.718 87.874 196.731 89.7549 195.462 91.4477C194.193 93.0934 192.689 94.5511 190.95 95.8207C189.211 97.0903 187.284 98.1953 185.169 99.1357L199.904 119.943C201.173 121.636 202.442 123.258 203.711 124.81C205.027 126.361 206.273 127.748 207.448 128.971C208.623 130.194 209.728 131.228 210.762 132.074C211.796 132.874 212.665 133.415 213.37 133.697V133.979H194.898C194.898 133.556 194.593 132.827 193.982 131.792C193.418 130.711 192.736 129.606 191.937 128.477C191.185 127.302 190.41 126.173 189.611 125.092C188.858 124.01 188.294 123.211 187.918 122.694L173.042 101.745Z" fill="#FFEACA"/>
<path d="M243.385 95.8207C243.385 90.2721 244.419 85.1233 246.487 80.3741C248.603 75.6249 251.47 71.5105 255.089 68.0309C258.708 64.5043 262.985 61.7535 267.921 59.7786C272.856 57.8037 278.144 56.8162 283.784 56.8162C289.33 56.8162 294.548 57.7566 299.436 59.6375C304.371 61.4714 308.648 64.1046 312.268 67.5372C315.934 70.9697 318.825 75.1312 320.94 80.0214C323.055 84.9117 324.112 90.3897 324.112 96.4555C324.112 101.487 323.219 106.354 321.433 111.056C319.647 115.711 317.038 119.849 313.607 123.469C310.176 127.043 305.946 129.911 300.917 132.074C295.887 134.19 290.129 135.248 283.643 135.248C278.144 135.248 272.95 134.331 268.062 132.498C263.173 130.664 258.896 128.054 255.23 124.669C251.564 121.236 248.673 117.098 246.558 112.255C244.443 107.365 243.385 101.887 243.385 95.8207ZM285.406 130.241C288.978 130.241 292.268 129.535 295.276 128.125C298.284 126.714 300.87 124.692 303.032 122.059C305.241 119.426 306.933 116.228 308.108 112.466C309.33 108.658 309.941 104.379 309.941 99.6295C309.941 94.222 309.353 89.2142 308.178 84.606C307.05 79.9979 305.311 76.0246 302.961 72.686C300.658 69.3005 297.767 66.6673 294.289 64.7864C290.811 62.8585 286.745 61.8946 282.092 61.8946C278.52 61.8946 275.23 62.5764 272.221 63.94C269.213 65.3036 266.605 67.2785 264.395 69.8647C262.233 72.4509 260.541 75.6249 259.319 79.3866C258.097 83.1484 257.486 87.4273 257.486 92.2235C257.486 97.584 258.074 102.592 259.249 107.247C260.471 111.855 262.233 115.875 264.536 119.308C266.887 122.694 269.801 125.374 273.279 127.349C276.757 129.277 280.799 130.241 285.406 130.241Z" fill="#FFEACA"/>
<path d="M398.308 134.966H395.558L339.508 79.8098V104.919C339.508 109.151 339.531 112.843 339.578 115.993C339.625 119.143 339.696 121.871 339.79 124.175C339.931 126.432 340.095 128.336 340.283 129.888C340.518 131.44 340.8 132.709 341.129 133.697V133.979H330.554V133.697C330.883 132.709 331.165 131.44 331.4 129.888C331.635 128.336 331.823 126.432 331.964 124.175C332.105 121.871 332.199 119.143 332.246 115.993C332.293 112.843 332.316 109.151 332.316 104.919V87.1452C332.316 82.9132 332.293 79.2456 332.246 76.1421C332.199 72.9917 332.105 70.2879 331.964 68.0309C331.823 65.7268 331.635 63.7989 331.4 62.2472C331.165 60.6955 330.883 59.4259 330.554 58.4385V58.1563H334.925L391.046 113.595V87.1452C391.046 82.9132 391.022 79.2456 390.975 76.1421C390.928 72.9917 390.834 70.2879 390.693 68.0309C390.599 65.7268 390.458 63.7989 390.27 62.2472C390.082 60.6955 389.824 59.4259 389.495 58.4385V58.1563H400V58.4385C399.671 59.4259 399.389 60.6955 399.154 62.2472C398.966 63.7989 398.801 65.7268 398.66 68.0309C398.519 70.2879 398.425 72.9917 398.378 76.1421C398.331 79.2456 398.308 82.9132 398.308 87.1452V134.966Z" fill="#FFEACA"/>
<path d="M220.431 132.842C220.713 131.855 220.972 130.632 221.207 129.174C221.489 127.717 221.724 125.906 221.912 123.743C222.1 121.58 222.241 119.018 222.335 116.055C222.429 113.046 222.476 109.543 222.476 105.546L222.476 93.1782C222.476 89.1813 222.194 86.0074 221.63 83.6563C221.066 81.3052 220.384 79.4949 219.585 78.2253C218.926 77.1116 218.488 76.4872 218.488 75.4754L235.972 69.988C234.367 75.7872 235.072 76.7438 234.885 82.7394C234.791 85.7017 234.744 89.1813 234.744 93.1782L234.744 105.546C234.744 109.543 234.791 113.046 234.885 116.055C234.979 119.018 235.12 121.58 235.308 123.743C235.496 125.906 235.707 127.717 235.942 129.174C236.224 130.632 236.506 131.855 236.788 132.842V133.124H220.431V132.842Z" fill="#FFEACA"/>
<path d="M86.1567 136.585C115.693 136.585 139.638 112.631 139.638 83.0827C139.638 53.534 115.693 29.5801 86.1567 29.5801C70.6806 29.5801 56.7399 36.1562 46.9743 46.6676C55.5715 39.0239 66.8941 34.3811 79.3005 34.3811C106.187 34.3811 127.982 56.1853 127.982 83.0822C127.982 109.979 106.187 131.783 79.3005 131.783C66.8914 131.783 55.5666 127.138 46.9687 119.492C56.7346 130.007 70.6777 136.585 86.1567 136.585Z" fill="#FFEACA"/>
<path d="M213.689 54.135L221.688 48.5572L227.264 40.5543L232.597 48.7998L240.839 54.135L232.839 59.7129L227.264 67.7158L221.688 59.7129L213.689 54.135Z" fill="#FFEACA"/>
<path d="M104.23 54.1531C101.651 54.1189 99.0694 54.1531 96.4883 54.0748C94.9595 54.0307 93.4322 53.9653 91.9021 53.9596C91.8607 53.9596 91.8208 53.9596 91.7794 53.9596C90.4161 53.8856 89.0538 53.8106 87.6924 53.7348C86.7241 53.6793 85.7558 53.6366 84.7918 53.5484C83.0662 53.3918 81.3407 53.2325 79.6223 53.002C77.4423 52.7265 75.2787 52.3341 73.1409 51.8266C70.3173 51.1337 67.5793 50.2003 65.0537 48.746C62.8465 47.4998 60.9079 45.8305 59.3495 43.8342C57.5955 41.5746 56.4047 39.029 55.5234 36.3297C54.3084 32.6046 53.6981 28.7598 53.2717 24.8796C53.1205 23.5122 53.015 22.1405 52.9066 20.7688C52.7868 19.2477 52.7098 17.7252 52.6214 16.2027C52.533 14.6802 52.4988 13.1804 52.456 11.6693C52.4189 10.4029 52.4061 9.1365 52.3833 7.86869C52.3376 5.40279 52.3505 2.93546 52.3405 0.469561C52.3405 0.32727 52.3405 0.184978 52.3405 0C52.312 0.0226084 52.29 0.052204 52.2765 0.0858813C52.263 0.119559 52.2585 0.156161 52.2635 0.192094C52.2521 2.03049 52.272 3.86889 52.1922 5.70871C52.1223 7.32799 52.1594 8.9501 52.118 10.5722C52.0534 13.0092 51.964 15.4457 51.8499 17.8817C51.7815 19.2961 51.6816 20.709 51.5647 22.1206C51.4478 23.5738 51.2961 25.0233 51.1098 26.469C50.823 28.8502 50.3983 31.2129 49.8378 33.5451C49.1561 36.2942 48.2406 38.9522 46.8259 41.4252C45.3789 43.9997 43.3567 46.2068 40.9164 47.8752C38.9356 49.2213 36.7808 50.2003 34.5119 50.9459C31.232 52.0244 27.8494 52.6348 24.4297 53.0646C22.67 53.2851 20.9031 53.4416 19.1348 53.5825C17.5847 53.7049 16.0303 53.7831 14.4773 53.8671C13.1026 53.9468 11.7236 53.9923 10.3417 54.0265C8.98985 54.0606 7.63224 54.082 6.28748 54.109C4.33521 54.1488 2.38008 54.1332 0.427816 54.1446C0.281256 54.1222 0.131369 54.1471 0 54.2157C0.887006 54.2314 1.70271 54.2769 2.51699 54.2883C5.57445 54.3295 8.63333 54.3381 11.6894 54.4647C12.9857 54.5188 14.2805 54.5629 15.5754 54.6298C16.8702 54.6966 18.1637 54.782 19.4571 54.8788C21.3205 55.0201 23.1796 55.2098 25.0344 55.4479C27.0834 55.7117 29.1173 56.0812 31.1279 56.555C33.7547 57.1754 36.3045 58.0092 38.7088 59.2585C42.39 61.1324 45.3822 64.121 47.2566 67.796C48.7996 70.7641 49.7066 73.9401 50.3611 77.1985C51.0428 80.5965 51.4078 84.037 51.6688 87.489C51.8114 89.3758 51.9127 91.2669 51.9968 93.1579C52.0767 94.9408 52.118 96.7251 52.1637 98.5095C52.215 100.456 52.1636 102.405 52.2506 104.353C52.3063 105.55 52.2692 106.751 52.2749 107.95C52.2513 108.087 52.2787 108.228 52.3519 108.346V108.147C52.3633 105.366 52.3519 102.588 52.4246 99.8072C52.4802 97.724 52.5073 95.6394 52.5929 93.5577C52.6414 92.4194 52.6998 91.2711 52.7583 90.1285C52.8638 88.0198 53.0435 85.9167 53.2574 83.8165C53.4499 81.9667 53.6852 80.1368 54.0204 78.3127C54.5908 75.141 55.3765 72.0263 56.7113 69.0737C57.7024 66.8824 58.9731 64.8747 60.6444 63.1331C62.6409 61.0528 65.0209 59.5388 67.6648 58.419C71.2385 56.9036 75.0005 56.1167 78.8223 55.5732C80.3083 55.3611 81.7999 55.2018 83.2944 55.0566C84.8973 54.9001 86.5045 54.8034 88.1102 54.6867C89.1854 54.6084 90.2621 54.56 91.3402 54.5245C93.3367 54.4576 95.3246 54.3822 97.3168 54.358C99.637 54.3238 101.959 54.3338 104.279 54.2456C104.343 54.2456 104.421 54.2655 104.468 54.2043C104.396 54.1275 104.309 54.1545 104.23 54.1531Z" fill="#FFEACA"/>
<path d="M99.9673 74.6464C98.979 74.6333 97.9901 74.6464 97.0013 74.6164C96.4156 74.5995 95.8304 74.5744 95.2442 74.5722C95.2284 74.5722 95.2131 74.5722 95.1972 74.5722C94.6749 74.5439 94.153 74.5152 93.6314 74.4861C93.2604 74.4648 92.8895 74.4485 92.5201 74.4147C91.8591 74.3547 91.198 74.2937 90.5396 74.2054C89.7044 74.0998 88.8755 73.9495 88.0565 73.7551C86.9748 73.4896 85.9258 73.132 84.9582 72.5749C84.1126 72.0974 83.3699 71.4579 82.7728 70.693C82.1008 69.8274 81.6446 68.8521 81.307 67.818C80.8415 66.3908 80.6077 64.9178 80.4443 63.4313C80.3864 62.9074 80.346 62.3819 80.3045 61.8563C80.2586 61.2736 80.2291 60.6903 80.1952 60.107C80.1613 59.5237 80.1482 58.9491 80.1318 58.3702C80.1176 57.885 80.1127 57.3998 80.104 56.9141C80.0865 55.9694 80.0914 55.0241 80.0876 54.0794C80.0876 54.0249 80.0876 53.9704 80.0876 53.8995C80.0767 53.9082 80.0682 53.9195 80.0631 53.9324C80.0579 53.9453 80.0562 53.9593 80.0581 53.9731C80.0537 54.6774 80.0613 55.3817 80.0307 56.0866C80.004 56.707 80.0182 57.3284 80.0023 57.9499C79.9776 58.8835 79.9433 59.817 79.8996 60.7503C79.8734 61.2921 79.8352 61.8335 79.7904 62.3742C79.7456 62.931 79.6875 63.4863 79.6161 64.0402C79.5062 64.9525 79.3435 65.8576 79.1287 66.7511C78.8676 67.8044 78.5168 68.8227 77.9749 69.7701C77.4205 70.7565 76.6457 71.602 75.7108 72.2412C74.9519 72.7569 74.1264 73.132 73.2572 73.4176C72.0006 73.8309 70.7047 74.0647 69.3946 74.2293C68.7204 74.3138 68.0434 74.3738 67.366 74.4278C66.7721 74.4747 66.1766 74.5046 65.5816 74.5368C65.0549 74.5673 64.5266 74.5848 63.9972 74.5979C63.4793 74.6109 62.9592 74.6191 62.444 74.6295C61.696 74.6447 60.947 74.6387 60.1991 74.6431C60.1429 74.6345 60.0855 74.6441 60.0351 74.6704C60.375 74.6764 60.6875 74.6938 60.9994 74.6982C62.1708 74.714 63.3427 74.7172 64.5135 74.7658C65.0101 74.7865 65.5062 74.8034 66.0023 74.829C66.4984 74.8546 66.9939 74.8873 67.4894 74.9244C68.2033 74.9785 68.9156 75.0512 69.6262 75.1425C70.4112 75.2435 71.1904 75.3851 71.9607 75.5666C72.9671 75.8043 73.9439 76.1237 74.8651 76.6023C76.2754 77.3203 77.4218 78.4652 78.1399 79.8732C78.731 81.0103 79.0785 82.2271 79.3292 83.4754C79.5904 84.7772 79.7303 86.0954 79.8302 87.4179C79.8849 88.1407 79.9237 88.8652 79.9559 89.5897C79.9865 90.2728 80.0023 90.9564 80.0198 91.64C80.0395 92.3857 80.0198 93.1326 80.0531 93.8788C80.0745 94.3373 80.0602 94.7974 80.0624 95.257C80.0534 95.3094 80.0639 95.3633 80.0919 95.4085V95.3322C80.0963 94.267 80.0919 93.2023 80.1198 92.1371C80.1411 91.3391 80.1515 90.5404 80.1843 89.7429C80.2028 89.3068 80.2253 88.8668 80.2477 88.4291C80.2881 87.6212 80.3569 86.8155 80.4389 86.0109C80.5126 85.3022 80.6028 84.6011 80.7312 83.9023C80.9497 82.6872 81.2507 81.4939 81.7621 80.3627C82.1418 79.5232 82.6286 78.754 83.2689 78.0867C84.0338 77.2897 84.9456 76.7097 85.9586 76.2807C87.3277 75.7001 88.769 75.3987 90.2332 75.1904C90.8024 75.1092 91.3739 75.0481 91.9465 74.9925C92.5606 74.9326 93.1763 74.8955 93.7915 74.8508C94.2034 74.8208 94.6159 74.8023 95.029 74.7887C95.7938 74.763 96.5554 74.7341 97.3187 74.7249C98.2076 74.7118 99.097 74.7156 99.9859 74.6818C100.011 74.6818 100.041 74.6894 100.059 74.666C100.031 74.6366 99.9974 74.6469 99.9673 74.6464Z" fill="#FFEACA"/>
</g>
</svg>
