<svg width="230" height="231" viewBox="0 0 230 231" fill="none" xmlns="http://www.w3.org/2000/svg">
<path d="M121.099 116.812C130.634 116.694 149.907 115.5 175.458 115.5C149.903 115.5 130.634 114.306 121.099 114.188C134.378 110.526 167.738 99.1348 230 79.8099C167.728 99.1348 133.741 108.653 120.75 113.138C128.389 107.691 143.247 95.9025 163.92 81.5573C143.247 95.9025 126.917 105.764 119.134 111.017C127.612 100.589 147.583 72.6577 186.074 22.0589C147.583 72.6577 125.948 99.4298 118.194 110.364C121.02 101.667 125.787 83.7888 133.683 60.5765C125.787 83.7888 118.642 100.929 115.581 109.552C116.029 96.3561 115.002 62.5436 115.002 0C115.002 62.5436 113.976 96.3561 114.423 109.552C111.36 100.929 104.216 83.7888 96.321 60.5765C104.213 83.7888 108.98 101.667 111.806 110.364C104.052 99.4298 82.4167 72.6577 43.9257 22.0589C82.4167 72.6577 102.388 100.589 110.873 111.025C103.089 105.766 86.759 95.9106 66.0867 81.5654C86.759 95.9005 101.617 107.689 109.25 113.136C96.2593 108.661 62.264 99.1348 0 79.8079C62.2725 99.1328 95.6204 110.524 108.901 114.186C99.3664 114.304 80.0932 115.498 54.5419 115.498C80.0975 115.498 99.3664 116.692 108.901 116.81C95.6225 120.472 62.2725 131.863 0 151.188C62.2725 131.863 96.2593 122.345 109.25 117.86C101.609 123.307 86.7505 135.095 66.0782 149.441C86.7505 135.095 103.08 125.234 110.864 119.983C102.388 130.411 82.4167 158.342 43.9257 208.941C82.4167 158.342 104.052 131.57 111.806 120.636C108.98 129.333 104.213 147.211 96.3168 170.423C104.213 147.211 111.358 130.071 114.419 121.448C113.971 134.644 114.998 168.456 114.998 231C114.998 168.456 116.024 134.644 115.577 121.448C118.64 130.071 125.784 147.211 133.679 170.423C125.787 147.211 121.02 129.333 118.194 120.636C125.951 131.564 147.583 158.342 186.076 208.941C147.583 158.342 127.612 130.411 119.127 119.987C126.911 125.244 143.241 135.1 163.913 149.445C143.241 135.1 128.383 123.311 120.75 117.864C133.741 122.339 167.734 131.865 230 151.192C167.728 131.865 134.38 120.482 121.099 116.812Z" fill="#6D8CF8"/>
</svg>
