<svg width="230" height="181" viewBox="0 0 230 181" fill="none" xmlns="http://www.w3.org/2000/svg">
<path d="M121.099 66.812C130.634 66.6941 149.907 65.5 175.458 65.5C149.903 65.5 130.634 64.3059 121.099 64.1879C134.378 60.5264 167.738 49.1348 230 29.8099C167.728 49.1348 133.741 58.6529 120.75 63.1383C128.389 57.6907 143.247 45.9025 163.92 31.5573C143.247 45.9025 126.917 55.7643 119.134 61.0166C127.612 50.5893 147.583 22.6577 186.074 -27.9411C147.583 22.6577 125.948 49.4298 118.194 60.3636C121.02 51.6674 125.787 33.7888 133.683 10.5765C125.787 33.7888 118.642 50.929 115.581 59.552C116.029 46.3561 115.002 12.5436 115.002 -50C115.002 12.5436 113.976 46.3561 114.423 59.552C111.36 50.929 104.216 33.7888 96.321 10.5765C104.213 33.7888 108.98 51.6674 111.806 60.3636C104.052 49.4298 82.4167 22.6577 43.9257 -27.9411C82.4167 22.6577 102.388 50.5893 110.873 61.0247C103.089 55.7663 86.759 45.9106 66.0867 31.5654C86.759 45.9005 101.617 57.6887 109.25 63.1362C96.2593 58.661 62.264 49.1348 0 29.8079C62.2725 49.1328 95.6204 60.5243 108.901 64.1859C99.3664 64.3039 80.0932 65.498 54.5419 65.498C80.0975 65.498 99.3664 66.692 108.901 66.81C95.6225 70.4716 62.2725 81.8631 0 101.188C62.2725 81.8631 96.2593 72.3451 109.25 67.8597C101.609 73.3073 86.7505 85.0955 66.0781 99.4407C86.7505 85.0955 103.08 75.2336 110.864 69.9834C102.388 80.4107 82.4167 108.342 43.9257 158.941C82.4167 108.342 104.052 81.5702 111.806 70.6364C108.98 79.3326 104.213 97.2112 96.3168 120.423C104.213 97.2112 111.358 80.071 114.419 71.448C113.971 84.6439 114.998 118.456 114.998 181C114.998 118.456 116.024 84.6439 115.577 71.448C118.64 80.071 125.784 97.2112 133.679 120.423C125.787 97.2112 121.02 79.3326 118.194 70.6364C125.951 81.5641 147.583 108.342 186.076 158.941C147.583 108.342 127.612 80.4107 119.127 69.9874C126.911 75.2438 143.241 85.0995 163.913 99.4447C143.241 85.0995 128.383 73.3113 120.75 67.8637C133.741 72.339 167.734 81.8652 230 101.192C167.728 81.8652 134.38 70.4818 121.099 66.812Z" fill="#6D8CF8"/>
</svg>
