<svg width="20" height="18" viewBox="0 0 20 18" fill="none" xmlns="http://www.w3.org/2000/svg">
<path d="M17.5 2.25H14.9012L13.6234 0.33375C13.555 0.231142 13.4623 0.147003 13.3535 0.0887865C13.2448 0.0305702 13.1233 7.40671e-05 13 0H7C6.87665 7.40671e-05 6.75522 0.0305702 6.64648 0.0887865C6.53773 0.147003 6.44502 0.231142 6.37656 0.33375L5.09781 2.25H2.5C1.90326 2.25 1.33097 2.48705 0.90901 2.90901C0.487053 3.33097 0.25 3.90326 0.25 4.5V15C0.25 15.5967 0.487053 16.169 0.90901 16.591C1.33097 17.0129 1.90326 17.25 2.5 17.25H17.5C18.0967 17.25 18.669 17.0129 19.091 16.591C19.5129 16.169 19.75 15.5967 19.75 15V4.5C19.75 3.90326 19.5129 3.33097 19.091 2.90901C18.669 2.48705 18.0967 2.25 17.5 2.25ZM13.375 9.375C13.375 10.0425 13.1771 10.695 12.8062 11.25C12.4354 11.8051 11.9083 12.2376 11.2916 12.4931C10.6749 12.7485 9.99626 12.8154 9.34157 12.6852C8.68688 12.5549 8.08552 12.2335 7.61351 11.7615C7.14151 11.2895 6.82007 10.6881 6.68985 10.0334C6.55962 9.37874 6.62646 8.70014 6.88191 8.08344C7.13735 7.46674 7.56993 6.93964 8.12495 6.56879C8.67997 6.19794 9.33249 6 10 6C10.8951 6 11.7535 6.35558 12.3865 6.98851C13.0194 7.62145 13.375 8.47989 13.375 9.375Z" fill="white"/>
</svg>
