<svg width="22" height="22" viewBox="0 0 22 22" fill="none" xmlns="http://www.w3.org/2000/svg">
<path fill-rule="evenodd" clip-rule="evenodd" d="M4.52719 14.5631C4.67286 14.7518 4.73774 14.9905 4.7076 15.227C4.67745 15.4634 4.55474 15.6782 4.36639 15.8243C3.92858 16.1613 3.59258 16.6128 3.3956 17.129C3.19863 17.6451 3.14837 18.2057 3.25039 18.7487C3.79336 18.8507 4.35396 18.8005 4.87012 18.6035C5.38628 18.4065 5.83784 18.0705 6.17479 17.6327C6.24629 17.5369 6.33614 17.4564 6.4391 17.3957C6.54207 17.335 6.65608 17.2955 6.77449 17.2794C6.89291 17.2632 7.01335 17.2709 7.12879 17.3018C7.24422 17.3327 7.35235 17.3863 7.44685 17.4594C7.54136 17.5326 7.62035 17.6238 7.67921 17.7278C7.73808 17.8318 7.77564 17.9465 7.78971 18.0652C7.80378 18.1839 7.79407 18.3041 7.76116 18.419C7.72824 18.5339 7.67277 18.6411 7.59799 18.7343C6.98304 19.5319 6.13249 20.1156 5.16706 20.4025C4.20163 20.6894 3.17036 20.665 2.21959 20.3327C2.0917 20.2881 1.97553 20.2151 1.87974 20.1194C1.78396 20.0236 1.71103 19.9074 1.66639 19.7795C1.3339 18.8288 1.30937 17.7974 1.5963 16.832C1.88322 15.8665 2.46702 15.0159 3.26479 14.4011C3.45354 14.2551 3.69256 14.19 3.92929 14.2201C4.16603 14.2503 4.38109 14.3732 4.52719 14.5619V14.5631Z" fill="white"/>
<path fill-rule="evenodd" clip-rule="evenodd" d="M5.90235 13.399C6.68843 14.4047 7.59433 15.3106 8.59995 16.0966V20.899C8.59995 21.3958 9.00315 21.799 9.49995 21.799C10.433 21.7993 11.3533 21.5818 12.1876 21.1641C13.0219 20.7463 13.7473 20.1398 14.3061 19.3926C14.865 18.6454 15.2418 17.7781 15.4068 16.8598C15.5717 15.9414 15.5202 14.9972 15.2564 14.1022C17.3246 12.6295 19.0016 10.6737 20.1415 8.40488C21.2813 6.13609 21.8494 3.62311 21.7964 1.08465C21.7917 0.852168 21.6973 0.630494 21.5329 0.466074C21.3685 0.301655 21.1468 0.207252 20.9144 0.202647C18.3757 0.14939 15.8625 0.717401 13.5935 1.85724C11.3244 2.99708 9.36839 4.67421 7.89555 6.74265C7.00065 6.479 6.05661 6.42767 5.1384 6.59273C4.22019 6.75779 3.35312 7.13469 2.60607 7.69349C1.85901 8.2523 1.25256 8.97761 0.83488 9.81181C0.417199 10.646 0.1998 11.5661 0.199951 12.499C0.201151 12.9958 0.604351 13.399 1.10115 13.399H5.90235ZM14.6 9.79905C15.2365 9.79905 15.8469 9.54619 16.297 9.0961C16.7471 8.64602 17 8.03557 17 7.39905C17 6.76253 16.7471 6.15208 16.297 5.70199C15.8469 5.2519 15.2365 4.99905 14.6 4.99905C13.9634 4.99905 13.353 5.2519 12.9029 5.70199C12.4528 6.15208 12.2 6.76253 12.2 7.39905C12.2 8.03557 12.4528 8.64602 12.9029 9.0961C13.353 9.54619 13.9634 9.79905 14.6 9.79905Z" fill="white"/>
</svg>
