<svg width="18" height="18" viewBox="0 0 18 18" fill="none" xmlns="http://www.w3.org/2000/svg">
<path d="M0.600098 1.79961C0.600098 1.48135 0.726526 1.17612 0.951569 0.951081C1.17661 0.726038 1.48184 0.599609 1.8001 0.599609H16.2001C16.5184 0.599609 16.8236 0.726038 17.0486 0.951081C17.2737 1.17612 17.4001 1.48135 17.4001 1.79961V4.19961C17.4001 4.51787 17.2737 4.82309 17.0486 5.04814C16.8236 5.27318 16.5184 5.39961 16.2001 5.39961H1.8001C1.48184 5.39961 1.17661 5.27318 0.951569 5.04814C0.726526 4.82309 0.600098 4.51787 0.600098 4.19961V1.79961ZM0.600098 8.99961C0.600098 8.68135 0.726526 8.37612 0.951569 8.15108C1.17661 7.92604 1.48184 7.79961 1.8001 7.79961H9.0001C9.31836 7.79961 9.62358 7.92604 9.84863 8.15108C10.0737 8.37612 10.2001 8.68135 10.2001 8.99961V16.1996C10.2001 16.5179 10.0737 16.8231 9.84863 17.0481C9.62358 17.2732 9.31836 17.3996 9.0001 17.3996H1.8001C1.48184 17.3996 1.17661 17.2732 0.951569 17.0481C0.726526 16.8231 0.600098 16.5179 0.600098 16.1996V8.99961ZM13.8001 7.79961C13.4818 7.79961 13.1766 7.92604 12.9516 8.15108C12.7265 8.37612 12.6001 8.68135 12.6001 8.99961V16.1996C12.6001 16.5179 12.7265 16.8231 12.9516 17.0481C13.1766 17.2732 13.4818 17.3996 13.8001 17.3996H16.2001C16.5184 17.3996 16.8236 17.2732 17.0486 17.0481C17.2737 16.8231 17.4001 16.5179 17.4001 16.1996V8.99961C17.4001 8.68135 17.2737 8.37612 17.0486 8.15108C16.8236 7.92604 16.5184 7.79961 16.2001 7.79961H13.8001Z" fill="white"/>
</svg>
