<svg width="24" height="28" viewBox="0 0 24 28" fill="none" xmlns="http://www.w3.org/2000/svg">
<path d="M18.5007 24.5574C18.1344 24.5574 17.7934 24.4816 17.5408 24.368C16.644 23.9007 16.0125 23.2565 15.381 21.362C14.7368 19.3917 13.5243 18.4697 12.3624 17.5729C11.3646 16.8025 10.3289 16.0068 9.43216 14.3775C8.76276 13.165 8.39648 11.8388 8.39648 10.6642C8.39648 7.12773 11.1751 4.34909 14.7116 4.34909C18.248 4.34909 21.0267 7.12773 21.0267 10.6642H23.5527C23.5527 5.70052 19.6753 1.82305 14.7116 1.82305C9.74792 1.82305 5.87044 5.70052 5.87044 10.6642C5.87044 12.2556 6.35039 14.0112 7.22187 15.59C8.37122 17.674 9.72266 18.7223 10.8215 19.5685C11.8445 20.3516 12.5771 20.9199 12.9812 22.1577C13.7391 24.4564 14.7116 25.7447 16.4293 26.6414C17.1988 26.9877 18.0428 27.1356 18.8842 27.0718C19.7257 27.0079 20.5377 26.7342 21.2461 26.2757C21.9545 25.8173 22.5368 25.1886 22.9397 24.4472C23.3427 23.7058 23.5534 22.8752 23.5527 22.0314H21.0267C21.0267 23.4207 19.89 24.5574 18.5007 24.5574ZM6.67878 2.63138L4.88529 0.837891C2.37187 3.3513 0.818359 6.82461 0.818359 10.6642C0.818359 14.5038 2.37187 17.9771 4.88529 20.4905L6.66615 18.7096C4.62005 16.6509 3.3444 13.8091 3.3444 10.6642C3.3444 7.51927 4.62005 4.67747 6.67878 2.63138ZM11.554 10.6642C11.554 11.5016 11.8867 12.3048 12.4789 12.8969C13.071 13.4891 13.8742 13.8217 14.7116 13.8217C15.549 13.8217 16.3522 13.4891 16.9443 12.8969C17.5365 12.3048 17.8691 11.5016 17.8691 10.6642C17.8691 9.82676 17.5365 9.02362 16.9443 8.43147C16.3522 7.83931 15.549 7.50664 14.7116 7.50664C13.8742 7.50664 13.071 7.83931 12.4789 8.43147C11.8867 9.02362 11.554 9.82676 11.554 10.6642Z" fill="white"/>
</svg>
