<svg width="24" height="24" viewBox="0 0 24 24" fill="none" xmlns="http://www.w3.org/2000/svg">
<path d="M18.3571 1.61395C18.4594 1.44343 18.6254 1.32055 18.8183 1.27235C19.0113 1.22416 19.2155 1.25459 19.3861 1.35695L19.3891 1.35895L19.3921 1.36095L19.4021 1.36695C19.4411 1.3907 19.4791 1.41606 19.5161 1.44295C19.5861 1.49195 19.6811 1.56295 19.7931 1.65495C20.0151 1.83995 20.3051 2.11695 20.5951 2.49295C21.1771 3.24995 21.7501 4.40695 21.7501 5.99995C21.7501 7.59295 21.1771 8.74995 20.5951 9.50695C20.3051 9.88295 20.0151 10.16 19.7931 10.345C19.6724 10.4453 19.5462 10.5388 19.4151 10.625L19.4021 10.633L19.3921 10.639L19.3891 10.641L19.3871 10.642C19.3871 10.642 19.3861 10.643 19.0001 9.99995L19.3861 10.643C19.2162 10.7393 19.0154 10.7657 18.8265 10.7164C18.6375 10.667 18.4752 10.5459 18.3741 10.3788C18.2731 10.2117 18.2412 10.0118 18.2852 9.82148C18.3293 9.63121 18.4458 9.46563 18.6101 9.35995L18.6151 9.35595L18.6551 9.32895C18.6951 9.30095 18.7561 9.25595 18.8321 9.19295C18.9851 9.06495 19.1951 8.86695 19.4051 8.59295C19.8231 8.04995 20.2501 7.20695 20.2501 5.99995C20.2501 4.79295 19.8231 3.94995 19.4051 3.40695C19.2365 3.18666 19.0444 2.98547 18.8321 2.80695C18.7625 2.74898 18.6901 2.69458 18.6151 2.64395L18.6101 2.63995C18.441 2.53694 18.3196 2.37127 18.2722 2.17908C18.2248 1.98688 18.2553 1.78374 18.3571 1.61395ZM10.0001 9.99995C11.0609 9.99995 12.0783 9.57852 12.8285 8.82838C13.5786 8.07823 14.0001 7.06082 14.0001 5.99995C14.0001 4.93909 13.5786 3.92167 12.8285 3.17152C12.0783 2.42138 11.0609 1.99995 10.0001 1.99995C8.9392 1.99995 7.92178 2.42138 7.17163 3.17152C6.42149 3.92167 6.00006 4.93909 6.00006 5.99995C6.00006 7.06082 6.42149 8.07823 7.17163 8.82838C7.92178 9.57852 8.9392 9.99995 10.0001 9.99995ZM2.00006 17.5C2.00006 19.985 2.00006 22 10.0001 22C18.0001 22 18.0001 19.985 18.0001 17.5C18.0001 15.015 14.4181 13 10.0001 13C5.58206 13 2.00006 15.015 2.00006 17.5Z" fill="white"/>
<path d="M17.3861 3.35739C17.3016 3.30655 17.2079 3.27287 17.1104 3.25827C17.0129 3.24367 16.9134 3.24844 16.8178 3.27231C16.7221 3.29618 16.6321 3.33868 16.5529 3.39738C16.4736 3.45608 16.4068 3.52982 16.3561 3.61439L16.6061 4.63839L16.6131 4.64339C16.7234 4.72634 16.822 4.8239 16.9061 4.93339C17.1381 5.23993 17.2593 5.61606 17.2501 6.00039C17.2593 6.38518 17.1377 6.76171 16.9051 7.06839C16.8213 7.17781 16.7231 7.27536 16.6131 7.35839L16.6051 7.36239C16.4388 7.46752 16.3205 7.63377 16.2756 7.82531C16.2308 8.01685 16.263 8.21835 16.3653 8.38637C16.4676 8.5544 16.6318 8.6755 16.8226 8.72358C17.0133 8.77165 17.2153 8.74286 17.3851 8.64339H17.3871L17.3891 8.64139L17.3921 8.64039L17.3991 8.63539L17.4191 8.62339C17.4952 8.57468 17.5677 8.52054 17.6361 8.46139C17.7651 8.35439 17.9301 8.19639 18.0951 7.98239C18.5288 7.41351 18.7594 6.7157 18.7501 6.00039C18.7594 5.28508 18.5288 4.58727 18.0951 4.01839C17.9177 3.78829 17.7083 3.58488 17.4731 3.41439C17.4553 3.40175 17.4373 3.38941 17.4191 3.37739L17.3991 3.36539L17.3921 3.36039L17.3891 3.35939L17.3871 3.35839C17.3871 3.35839 17.3861 3.35739 17.0001 4.00039L17.3861 3.35739Z" fill="white"/>
</svg>
