<svg width="22" height="22" viewBox="0 0 22 22" fill="none" xmlns="http://www.w3.org/2000/svg">
<path d="M6.03006 3.95L2.50006 7.5C-0.829939 10.81 -0.829939 16.19 2.50006 19.5C5.83006 22.81 11.1901 22.83 14.5001 19.5L20.5001 13.5C21.5001 12.53 21.5001 10.94 20.5001 9.96C20.4001 9.84 20.2701 9.73 20.1301 9.64L20.5001 9.25C21.5001 8.28 21.5001 6.69 20.5001 5.71C20.3601 5.55 20.1701 5.41 20.0001 5.3C20.3801 4.38 20.2101 3.28 19.4601 2.53C18.5901 1.66 17.2401 1.57 16.2601 2.25C16.0566 1.93658 15.7859 1.6724 15.4676 1.47663C15.1493 1.28087 14.7914 1.15844 14.4198 1.11822C14.0483 1.07801 13.6725 1.12102 13.3197 1.24414C12.9669 1.36725 12.6459 1.56738 12.3801 1.83L9.87006 4.34C9.78006 4.2 9.67006 4.07 9.55006 3.95C9.07814 3.49301 8.44698 3.2375 7.79006 3.2375C7.13314 3.2375 6.50198 3.49301 6.03006 3.95ZM7.44006 5.37C7.64006 5.17 7.95006 5.17 8.15006 5.37C8.35006 5.57 8.35006 5.88 8.15006 6.08L4.97006 9.26C5.53186 9.8225 5.84742 10.585 5.84742 11.38C5.84742 12.175 5.53186 12.9375 4.97006 13.5L6.38006 14.91C7.06739 14.222 7.53936 13.3487 7.73826 12.3968C7.93717 11.4449 7.8544 10.4556 7.50006 9.55L13.8001 3.25C14.0001 3.05 14.3101 3.05 14.5001 3.25C14.6901 3.45 14.7101 3.76 14.5001 3.96L9.91006 8.56L11.3201 9.97L17.3301 3.96C17.5301 3.76 17.8401 3.76 18.0401 3.96C18.2401 4.16 18.2401 4.47 18.0401 4.67L12.0301 10.68L13.4401 12.09L18.3901 7.14C18.5901 6.94 18.9001 6.94 19.1001 7.14C19.3001 7.34 19.3001 7.65 19.1001 7.85L13.4401 13.5L14.8501 14.92L18.3901 11.38C18.5901 11.18 18.9001 11.18 19.1001 11.38C19.3001 11.58 19.3001 11.89 19.1001 12.09L13.1001 18.1C10.5601 20.64 6.45006 20.64 3.91006 18.1C1.37006 15.56 1.37006 11.45 3.91006 8.91L7.44006 5.37ZM22.0001 16C22.0001 19.31 19.3101 22 16.0001 22V20.5C18.5001 20.5 20.5001 18.5 20.5001 16H22.0001ZM6.10352e-05 6C6.10352e-05 2.69 2.69006 0 6.00006 0V1.5C3.50006 1.5 1.50006 3.5 1.50006 6H6.10352e-05Z" fill="white"/>
</svg>
