<svg width="22" height="22" viewBox="0 0 22 22" fill="none" xmlns="http://www.w3.org/2000/svg">
<path d="M20.7101 7.70968C21.9601 6.45968 21.3901 4.99968 20.7101 4.28968L17.7101 1.28968C16.4501 0.0396849 15.0001 0.609685 14.2901 1.28968L12.5901 2.99968H10.0001C8.10007 2.99968 7.00007 3.99968 6.44007 5.14968L2.00007 9.58969V13.5897L1.29007 14.2897C0.0400687 15.5497 0.610069 16.9997 1.29007 17.7097L4.29007 20.7097C4.83007 21.2497 5.41007 21.4497 5.96007 21.4497C6.67007 21.4497 7.32007 21.0997 7.71007 20.7097L10.4101 17.9997H14.0001C15.7001 17.9997 16.5601 16.9397 16.8701 15.8997C18.0001 15.5997 18.6201 14.7397 18.8701 13.8997C20.4201 13.4997 21.0001 12.0297 21.0001 10.9997V7.99968H20.4101L20.7101 7.70968ZM19.0001 10.9997C19.0001 11.4497 18.8101 11.9997 18.0001 11.9997H17.0001V12.9997C17.0001 13.4497 16.8101 13.9997 16.0001 13.9997H15.0001V14.9997C15.0001 15.4497 14.8101 15.9997 14.0001 15.9997H9.59007L6.31007 19.2797C6.00007 19.5697 5.82007 19.3997 5.71007 19.2897L2.72007 16.3097C2.43007 15.9997 2.60007 15.8197 2.71007 15.7097L4.00007 14.4097V10.4097L6.00007 8.40968V9.99969C6.00007 11.2097 6.80007 12.9997 9.00007 12.9997C11.2001 12.9997 12.0001 11.2097 12.0001 9.99969H19.0001V10.9997ZM19.2901 6.28968L17.5901 7.99968H10.0001V9.99969C10.0001 10.4497 9.81007 10.9997 9.00007 10.9997C8.19007 10.9997 8.00007 10.4497 8.00007 9.99969V6.99968C8.00007 6.53968 8.17007 4.99968 10.0001 4.99968H13.4101L15.6901 2.71968C16.0001 2.42968 16.1801 2.59968 16.2901 2.70968L19.2801 5.68968C19.5701 5.99968 19.4001 6.17968 19.2901 6.28968Z" fill="white"/>
</svg>
