<svg width="198" height="35" viewBox="0 0 198 35" fill="none" xmlns="http://www.w3.org/2000/svg">
<path opacity="0.996" d="M44.4732 0.601562C41.8809 0.601605 39.3949 1.63142 37.5619 3.46445C35.7289 5.29748 34.6991 7.78358 34.6991 10.3759C34.6991 10.3774 34.6991 10.379 34.6991 10.3806C34.7004 12.972 35.7307 15.4569 37.5636 17.2889C39.3965 19.1209 41.8819 20.15 44.4734 20.15C44.5589 20.15 44.6444 20.1488 44.7299 20.1465V20.15H56.0051C56.005 20.15 56.0051 20.1489 56.0051 20.1486H57.5445H59.193V20.15C59.2316 20.149 59.2702 20.1485 59.3088 20.1486C60.4781 20.1486 61.5995 20.6129 62.4266 21.4395C63.2536 22.2661 63.7186 23.3873 63.7192 24.5566C63.7192 24.5572 63.7192 24.5579 63.7192 24.5585C63.7192 25.7282 63.2545 26.85 62.4274 27.6771C61.6003 28.5042 60.4785 28.9689 59.3088 28.9689C59.2702 28.969 59.2316 28.9686 59.193 28.9677V28.9689H57.5445H48.7434H35.8314V29.1065C34.5691 25.602 33.5483 22.7675 30.7167 14.9106C29.5226 11.5972 28.8732 9.79952 28.4753 8.70185C27.9749 6.55234 26.7617 4.63545 25.0332 3.26314C23.3048 1.89083 21.1628 1.14389 18.9558 1.14385C18.9542 1.14385 18.9526 1.14385 18.951 1.14385C16.9036 1.14492 14.9083 1.78887 13.2465 2.98485C11.5848 4.18083 10.3405 5.86845 9.68936 7.80954C9.49918 8.32583 8.69841 10.5412 7.1237 14.9106C3.24972 25.6601 1.6723 30.0396 0.125977 34.333H6.62305H24.5236H29.1014L26.9353 28.4586H8.7345C8.7345 28.4586 8.73455 28.4586 8.7345 28.4586C10.9263 22.3608 12.5778 17.7591 12.7862 17.153H12.8091L15.8866 7.68841C16.7088 6.89192 17.8084 6.4463 18.9531 6.4457C18.9542 6.4457 18.9553 6.4457 18.9564 6.4457C20.054 6.44572 21.1122 6.85502 21.9241 7.59362V7.59502L25.0324 17.1532H25.0554C25.3314 17.9562 27.6736 24.4799 31.2186 34.3337H37.7156L58.9909 34.3337V34.3302C59.0764 34.3325 59.1619 34.3337 59.2474 34.3337C60.531 34.3337 61.8021 34.0809 62.9879 33.5897C64.1738 33.0985 65.2513 32.3785 66.159 31.4708C67.0666 30.5632 67.7866 29.4857 68.2777 28.2998C68.7689 27.1139 69.0217 25.8428 69.0217 24.5592C69.0217 24.5578 69.0217 24.5563 69.0217 24.5549C69.0205 21.9634 67.9901 19.4785 66.1572 17.6464C64.3243 15.8144 61.8389 14.7853 59.2474 14.7853C59.1619 14.7853 59.0764 14.7863 58.9909 14.7886V14.7853H44.5279H44.5246C44.4871 14.7862 44.4495 14.7867 44.412 14.7867C43.2427 14.7867 42.1213 14.3223 41.2943 13.4958C40.4672 12.6692 40.0022 11.548 40.0016 10.3787C40.0016 10.378 40.0016 10.3774 40.0016 10.3767C40.0016 9.207 40.4663 8.08523 41.2934 7.25816C42.1205 6.43108 43.2423 5.96645 44.412 5.96644C44.4506 5.96641 44.4892 5.96687 44.5278 5.96785V5.96644H46.1763L54.9774 5.96644L67.8894 5.96644V0.602559L44.731 0.602559V0.606003C44.6456 0.60373 44.5602 0.602592 44.4747 0.602559L44.4732 0.601562Z" fill="url(#paint0_linear_696_5474)"/>
<path opacity="0.996" d="M78.2814 0.601563C76.9978 0.601558 75.7268 0.854357 74.5409 1.34556C73.355 1.83676 72.2775 2.55673 71.3699 3.46436C70.4623 4.37199 69.7423 5.44951 69.2511 6.63539C68.7599 7.82126 68.5071 9.09226 68.5071 10.3758C68.5071 10.3774 68.5071 10.3789 68.5071 10.3805C68.5084 12.972 69.5387 15.4569 71.3716 17.2888C73.2045 19.1208 75.6899 20.15 78.2814 20.15C78.3669 20.1499 78.4524 20.1488 78.5379 20.1465V20.1499H89.8131C89.813 20.1495 89.8129 20.1488 89.8129 20.1485H91.3523H93.0008V20.1499C93.0394 20.1489 93.078 20.1485 93.1166 20.1485C94.2859 20.1485 95.4073 20.6129 96.2344 21.4395C97.0614 22.266 97.5264 23.3872 97.527 24.5565V24.5568C97.527 24.5575 97.527 24.5582 97.527 24.5588C97.527 25.7286 97.0623 26.8503 96.2352 27.6775C95.4081 28.5046 94.2863 28.9692 93.1166 28.9693C93.078 28.9693 93.0394 28.9689 93.0008 28.9679V28.9693H91.3523H82.5512H69.6393V34.3331H92.7976V34.3296C92.883 34.3319 92.9685 34.333 93.0541 34.3331C94.3377 34.3331 95.6087 34.0803 96.7946 33.589C97.9805 33.0978 99.058 32.3778 99.9656 31.4702C100.873 30.5626 101.593 29.485 102.084 28.2991C102.576 27.1132 102.828 25.8422 102.828 24.5586C102.828 24.5572 102.828 24.5557 102.828 24.5543C102.827 21.9628 101.797 19.4779 99.9639 17.6459C98.131 15.8138 95.6456 14.7847 93.0541 14.7847C92.9685 14.7847 92.883 14.7859 92.7976 14.7881V14.7847L78.3346 14.7847H78.3312H78.331C78.2935 14.7856 78.2559 14.7861 78.2184 14.786C77.0492 14.7859 75.9279 14.3215 75.1009 13.495C74.2739 12.6684 73.809 11.5473 73.8084 10.3781V10.3777C73.8084 10.3771 73.8084 10.3764 73.8084 10.3757C73.8084 9.20604 74.2731 8.08428 75.1002 7.25721C75.9273 6.43014 77.0491 5.9655 78.2188 5.96548C78.2574 5.96543 78.2959 5.96588 78.3345 5.96684V5.96548H79.9831H88.7841L101.696 5.96548V0.601665L78.5378 0.601665V0.605103C78.4523 0.60283 78.3668 0.601694 78.2813 0.601665L78.2814 0.601563Z" fill="#027878"/>
<path opacity="0.996" d="M112.656 0.599609C111.372 0.599609 110.101 0.852422 108.915 1.34363C107.729 1.83483 106.652 2.5548 105.744 3.46243C104.837 4.37005 104.117 5.44756 103.625 6.63343C103.134 7.8193 102.881 9.09031 102.881 10.3739C102.881 10.3754 102.881 10.377 102.881 10.3786C102.882 11.705 103.153 13.0174 103.677 14.2359C104.201 15.4543 104.968 16.5534 105.93 17.4661C104.967 18.3793 104.2 19.4792 103.676 20.6985C103.152 21.9179 102.881 23.2312 102.881 24.5584C102.881 24.56 102.881 24.5616 102.881 24.5631C102.883 27.1546 103.913 29.6394 105.746 31.4713C107.579 33.3033 110.064 34.3324 112.656 34.3324C112.741 34.3324 112.827 34.3312 112.912 34.3289V34.3324H136.07V28.9687L123.158 28.9687H114.357H112.709V28.9673C112.67 28.9683 112.632 28.9688 112.593 28.9687C111.424 28.9687 110.302 28.5044 109.475 27.6778C108.648 26.8512 108.183 25.73 108.183 24.5607C108.183 24.56 108.183 24.5594 108.183 24.5587C108.183 23.389 108.647 22.2672 109.474 21.4401C110.302 20.613 111.423 20.1483 112.593 20.1483C112.611 20.1482 112.628 20.1482 112.646 20.1483C112.667 20.1486 112.688 20.149 112.709 20.1496V20.1483H112.912H114.357L136.07 20.1483V14.7846L112.912 14.7846H112.709V14.7832C112.674 14.7841 112.639 14.7846 112.604 14.7846C112.6 14.7846 112.597 14.7846 112.593 14.7846C111.424 14.7846 110.302 14.3202 109.475 13.4937C108.648 12.6671 108.183 11.5459 108.183 10.3766C108.183 10.3759 108.183 10.3752 108.183 10.3746C108.183 9.20487 108.647 8.08306 109.474 7.25595C110.301 6.42884 111.423 5.96419 112.593 5.96419C112.632 5.96413 112.67 5.96456 112.709 5.96552V5.96419H114.357H123.158L131.916 5.96419H136.07L143.471 5.96419H145.449V24.3009H145.452C145.45 24.3864 145.449 24.4719 145.449 24.5574C145.449 27.0261 146.383 29.4034 148.064 31.2117C149.744 33.0199 152.047 34.1252 154.509 34.3055V34.3319H155.502L164.303 34.3319H164.471H177.215H187.63V34.3284C187.715 34.3307 187.801 34.3318 187.886 34.3319C189.17 34.3319 190.441 34.079 191.627 33.5878C192.813 33.0966 193.89 32.3766 194.798 31.469C195.705 30.5613 196.425 29.4838 196.917 28.2979C197.408 27.112 197.661 25.841 197.661 24.5574C197.661 24.5559 197.661 24.5545 197.661 24.553C197.659 21.9615 196.629 19.4766 194.796 17.6446C192.963 15.8126 190.478 14.7834 187.886 14.7834C187.801 14.7834 187.715 14.7846 187.63 14.7869V14.7834L173.167 14.7834H173.163C173.126 14.7843 173.088 14.7848 173.051 14.7848C171.882 14.7847 170.76 14.3203 169.933 13.4938C169.106 12.6672 168.641 11.5462 168.641 10.377C168.641 10.3763 168.641 10.3756 168.641 10.3749C168.641 9.20527 169.105 8.08349 169.933 7.25642C170.76 6.42935 171.881 5.9647 173.051 5.9647C173.09 5.96464 173.128 5.96509 173.167 5.96605V5.9647H174.815L183.617 5.9647H196.529V0.600817L173.37 0.600817V0.604297C173.285 0.602012 173.199 0.600858 173.114 0.600817C171.83 0.600814 170.559 0.853631 169.373 1.34483C168.187 1.83604 167.11 2.55601 166.202 3.46363C165.295 4.37126 164.575 5.44877 164.083 6.63464C163.592 7.82051 163.339 9.09153 163.339 10.3751C163.339 10.3767 163.339 10.3782 163.339 10.3798C163.341 12.9713 164.371 15.4562 166.204 17.2881C168.037 19.1201 170.522 20.1492 173.114 20.1492C173.199 20.1492 173.285 20.1481 173.37 20.1458V20.1491H184.645C184.645 20.1491 184.645 20.1481 184.645 20.1478H186.185H187.833V20.1491C187.872 20.1482 187.911 20.1477 187.949 20.1478C189.118 20.1478 190.24 20.6121 191.067 21.4387C191.894 22.2653 192.359 23.3865 192.36 24.5558C192.36 24.5565 192.36 24.5571 192.36 24.5578C192.36 25.7275 191.895 26.8493 191.068 27.6764C190.241 28.5035 189.119 28.9682 187.949 28.9682C187.911 28.9683 187.872 28.9678 187.833 28.9669V28.9682H186.185H177.384H177.215H164.472H163.947H155.965C155.964 28.9682 155.965 28.9682 155.965 28.9682H154.579V28.9831C153.533 28.8284 152.577 28.3026 151.885 27.5017C151.194 26.7008 150.814 25.6781 150.814 24.6202C150.813 24.5816 150.813 24.543 150.814 24.5044V22.8558V14.0548V5.96441L158.707 5.96441V0.60053L136.071 0.60053L131.999 0.60053L112.913 0.60053V0.603969C112.827 0.601696 112.741 0.599639 112.656 0.599609Z" fill="url(#paint1_linear_696_5474)"/>
<defs>
<linearGradient id="paint0_linear_696_5474" x1="0.126012" y1="17.4674" x2="69.0204" y2="17.4674" gradientUnits="userSpaceOnUse">
<stop stop-color="#004646"/>
<stop offset="1" stop-color="#027878"/>
</linearGradient>
<linearGradient id="paint1_linear_696_5474" x1="102.881" y1="17.466" x2="197.66" y2="17.466" gradientUnits="userSpaceOnUse">
<stop stop-color="#027878"/>
<stop offset="1" stop-color="#70B2B1"/>
</linearGradient>
</defs>
</svg>
