<svg width="28" height="27" viewBox="0 0 28 27" fill="none" xmlns="http://www.w3.org/2000/svg">
<path d="M14.0003 0.666016C12.2494 0.666016 10.5156 1.01089 8.89788 1.68096C7.2802 2.35102 5.81035 3.33314 4.57223 4.57126C2.07175 7.07174 0.666992 10.4631 0.666992 13.9993C0.666992 19.8927 4.49366 24.8927 9.78699 26.666C10.4537 26.7727 10.667 26.3594 10.667 25.9993V23.746C6.97366 24.546 6.18699 21.9593 6.18699 21.9593C5.57366 20.4127 4.70699 19.9993 4.70699 19.9993C3.49366 19.1727 4.80032 19.1993 4.80032 19.1993C6.13366 19.2927 6.84033 20.5727 6.84033 20.5727C8.00033 22.5993 9.96033 21.9993 10.7203 21.6793C10.8403 20.8127 11.187 20.226 11.5603 19.8927C8.60033 19.5593 5.49366 18.4127 5.49366 13.3327C5.49366 11.8527 6.00033 10.666 6.86699 9.71935C6.73366 9.38602 6.26699 7.99935 7.00033 6.19935C7.00033 6.19935 8.12033 5.83935 10.667 7.55935C11.7203 7.26602 12.867 7.11935 14.0003 7.11935C15.1337 7.11935 16.2803 7.26602 17.3337 7.55935C19.8803 5.83935 21.0003 6.19935 21.0003 6.19935C21.7337 7.99935 21.267 9.38602 21.1337 9.71935C22.0003 10.666 22.507 11.8527 22.507 13.3327C22.507 18.426 19.387 19.546 16.4137 19.8793C16.8937 20.2927 17.3337 21.106 17.3337 22.346V25.9993C17.3337 26.3594 17.547 26.786 18.227 26.666C23.5203 24.8793 27.3337 19.8927 27.3337 13.9993C27.3337 12.2484 26.9888 10.5146 26.3187 8.8969C25.6487 7.27923 24.6665 5.80937 23.4284 4.57126C22.1903 3.33314 20.7204 2.35102 19.1028 1.68096C17.4851 1.01089 15.7513 0.666016 14.0003 0.666016Z" fill="#0D0C33"/>
</svg>
