<svg width="28" height="28" viewBox="0 0 28 28" fill="none" xmlns="http://www.w3.org/2000/svg">
<path d="M15.3708 0.667656C16.3438 0.663923 17.3167 0.673701 18.2895 0.69699L18.5481 0.706323C18.8468 0.71699 19.1415 0.730323 19.4975 0.746323C20.9161 0.81299 21.8841 1.03699 22.7335 1.36632C23.6135 1.70499 24.3548 2.16366 25.0961 2.90499C25.774 3.57113 26.2986 4.37692 26.6335 5.26632C26.9628 6.11566 27.1868 7.08499 27.2535 8.50366C27.2695 8.85832 27.2828 9.15432 27.2935 9.45299L27.3015 9.71166C27.3251 10.6839 27.3354 11.6565 27.3321 12.629L27.3335 13.6237V15.3703C27.3367 16.3433 27.3265 17.3163 27.3028 18.289L27.2948 18.5477C27.2841 18.8463 27.2708 19.141 27.2548 19.497C27.1881 20.9157 26.9615 21.8837 26.6335 22.733C26.2997 23.6233 25.7749 24.4298 25.0961 25.0957C24.4294 25.7734 23.6232 26.298 22.7335 26.633C21.8841 26.9623 20.9161 27.1863 19.4975 27.253C19.1415 27.269 18.8468 27.2823 18.5481 27.293L18.2895 27.301C17.3168 27.3247 16.3438 27.3349 15.3708 27.3317L14.3761 27.333H12.6308C11.6578 27.3363 10.6848 27.3261 9.71212 27.3023L9.45345 27.2943C9.13693 27.2829 8.82048 27.2695 8.50412 27.2543C7.08545 27.1877 6.11745 26.961 5.26679 26.633C4.37703 26.2988 3.5711 25.7741 2.90545 25.0957C2.22685 24.4294 1.70175 23.6231 1.36679 22.733C1.03745 21.8837 0.813452 20.9157 0.746785 19.497C0.731935 19.1806 0.718602 18.8642 0.706785 18.5477L0.700118 18.289C0.675537 17.3163 0.664424 16.3433 0.666785 15.3703V12.629C0.663064 11.6565 0.672842 10.6839 0.696118 9.71166L0.705452 9.45299C0.716118 9.15432 0.729452 8.85832 0.745452 8.50366C0.812118 7.08366 1.03612 6.11699 1.36545 5.26632C1.70062 4.37648 2.22674 3.57092 2.90679 2.90632C3.57198 2.22733 4.3774 1.70175 5.26679 1.36632C6.11745 1.03699 7.08412 0.81299 8.50412 0.746323L9.45345 0.706323L9.71212 0.699656C10.6844 0.675087 11.6569 0.663974 12.6295 0.666323L15.3708 0.667656ZM14.0001 7.33432C13.1168 7.32183 12.2398 7.48502 11.4201 7.81441C10.6004 8.14381 9.85431 8.63283 9.22525 9.25306C8.59618 9.8733 8.09665 10.6124 7.7557 11.4273C7.41475 12.2423 7.23917 13.1169 7.23917 14.0003C7.23917 14.8837 7.41475 15.7583 7.7557 16.5733C8.09665 17.3883 8.59618 18.1273 9.22525 18.7476C9.85431 19.3678 10.6004 19.8568 11.4201 20.1862C12.2398 20.5156 13.1168 20.6788 14.0001 20.6663C15.7682 20.6663 17.4639 19.9639 18.7142 18.7137C19.9644 17.4635 20.6668 15.7678 20.6668 13.9997C20.6668 12.2315 19.9644 10.5359 18.7142 9.28561C17.4639 8.03537 15.7682 7.33432 14.0001 7.33432ZM14.0001 10.001C14.5315 9.9912 15.0594 10.0874 15.5532 10.2839C16.0469 10.4805 16.4966 10.7734 16.8758 11.1457C17.2551 11.518 17.5564 11.9621 17.762 12.4521C17.9677 12.9421 18.0737 13.4682 18.0738 13.9996C18.0739 14.5311 17.9681 15.0572 17.7626 15.5473C17.557 16.0374 17.2559 16.4816 16.8768 16.854C16.4976 17.2264 16.0481 17.5195 15.5544 17.7162C15.0607 17.9129 14.5328 18.0093 14.0015 17.9997C12.9406 17.9997 11.9232 17.5782 11.173 16.8281C10.4229 16.0779 10.0015 15.0605 10.0015 13.9997C10.0015 12.9388 10.4229 11.9214 11.173 11.1712C11.9232 10.4211 12.9406 9.99966 14.0015 9.99966L14.0001 10.001ZM21.0001 5.33432C20.57 5.35154 20.1632 5.53452 19.8649 5.84495C19.5667 6.15538 19.4001 6.56917 19.4001 6.99966C19.4001 7.43014 19.5667 7.84393 19.8649 8.15436C20.1632 8.46479 20.57 8.64777 21.0001 8.66499C21.4421 8.66499 21.8661 8.4894 22.1786 8.17683C22.4912 7.86427 22.6668 7.44035 22.6668 6.99832C22.6668 6.5563 22.4912 6.13237 22.1786 5.81981C21.8661 5.50725 21.4421 5.33166 21.0001 5.33166V5.33432Z" fill="#0D0C33"/>
</svg>
