<svg width="52" height="51" viewBox="0 0 52 51" fill="none" xmlns="http://www.w3.org/2000/svg">
<rect x="0.844971" y="0.333984" width="50.6003" height="50.6003" rx="25.3001" fill="#6D8CF8"/>
<path d="M21.6649 33.1893C22.9826 33.9799 24.5639 34.4192 26.1451 34.4192C30.9768 34.4192 34.9299 30.466 34.9299 25.6344C34.9299 20.8028 30.9768 16.8496 26.1451 16.8496C21.3135 16.8496 17.3604 20.8028 17.3604 25.6344C17.3604 27.2156 17.7996 28.7091 18.5024 30.0268L17.8247 32.6334C17.6194 33.4229 18.3501 34.1364 19.1345 33.9123L21.6649 33.1893Z" stroke="white" stroke-width="1.05417" stroke-miterlimit="10" stroke-linecap="round" stroke-linejoin="round"/>
<path d="M30.0983 28.1371C30.0983 28.2794 30.0666 28.4257 29.9993 28.568C29.932 28.7103 29.8449 28.8447 29.7301 28.9712C29.5361 29.1847 29.3223 29.3389 29.0808 29.4377C28.8433 29.5365 28.5859 29.5879 28.3088 29.5879C27.905 29.5879 27.4734 29.4931 27.0181 29.2994C26.5628 29.1057 26.1076 28.8447 25.6562 28.5166C25.2009 28.1846 24.7694 27.8169 24.3576 27.4098C23.9499 26.9986 23.5817 26.5677 23.2531 26.1171C22.9284 25.6664 22.6671 25.2158 22.4771 24.769C22.287 24.3184 22.192 23.8875 22.192 23.4764C22.192 23.2076 22.2395 22.9506 22.3345 22.7134C22.4296 22.4723 22.58 22.2509 22.7898 22.0532C23.0432 21.8042 23.3204 21.6816 23.6133 21.6816C23.7242 21.6816 23.835 21.7054 23.934 21.7528C24.037 21.8002 24.128 21.8714 24.1993 21.9742L25.1178 23.2669C25.189 23.3657 25.2405 23.4566 25.2761 23.5436C25.3118 23.6266 25.3316 23.7096 25.3316 23.7847C25.3316 23.8796 25.3039 23.9745 25.2484 24.0654C25.197 24.1563 25.1217 24.2512 25.0267 24.3461L24.7258 24.6584C24.6823 24.7018 24.6625 24.7532 24.6625 24.8165C24.6625 24.8481 24.6664 24.8758 24.6744 24.9074C24.6862 24.939 24.6981 24.9628 24.706 24.9865C24.7773 25.1169 24.9 25.2869 25.0742 25.4925C25.2524 25.698 25.4424 25.9076 25.6483 26.1171C25.8621 26.3266 26.068 26.5203 26.2778 26.6982C26.4837 26.8721 26.6539 26.9907 26.7885 27.0619C26.8083 27.0698 26.8321 27.0816 26.8598 27.0935C26.8915 27.1054 26.9231 27.1093 26.9588 27.1093C27.0261 27.1093 27.0775 27.0856 27.1211 27.0421L27.422 26.7456C27.5209 26.6468 27.616 26.5717 27.707 26.5242C27.7981 26.4689 27.8891 26.4412 27.9881 26.4412C28.0633 26.4412 28.1425 26.457 28.2296 26.4926C28.3167 26.5282 28.4078 26.5796 28.5068 26.6468L29.8172 27.5758C29.9202 27.6469 29.9914 27.73 30.035 27.8288C30.0746 27.9276 30.0983 28.0264 30.0983 28.1371Z" stroke="white" stroke-width="1.05417" stroke-miterlimit="10"/>
</svg>
