<svg width="28" height="19" viewBox="0 0 28 19" fill="none" xmlns="http://www.w3.org/2000/svg">
<path d="M14 5.7C12.9874 5.7 12.0162 6.10036 11.3001 6.81299C10.5841 7.52563 10.1818 8.49218 10.1818 9.5C10.1818 10.5078 10.5841 11.4744 11.3001 12.187C12.0162 12.8996 12.9874 13.3 14 13.3C15.0126 13.3 15.9838 12.8996 16.6999 12.187C17.4159 11.4744 17.8182 10.5078 17.8182 9.5C17.8182 8.49218 17.4159 7.52563 16.6999 6.81299C15.9838 6.10036 15.0126 5.7 14 5.7ZM14 15.8333C12.3123 15.8333 10.6936 15.1661 9.50023 13.9783C8.30682 12.7906 7.63636 11.1797 7.63636 9.5C7.63636 7.8203 8.30682 6.20939 9.50023 5.02166C10.6936 3.83393 12.3123 3.16667 14 3.16667C15.6877 3.16667 17.3064 3.83393 18.4998 5.02166C19.6932 6.20939 20.3636 7.8203 20.3636 9.5C20.3636 11.1797 19.6932 12.7906 18.4998 13.9783C17.3064 15.1661 15.6877 15.8333 14 15.8333ZM14 0C7.63636 0 2.20182 3.93933 0 9.5C2.20182 15.0607 7.63636 19 14 19C20.3636 19 25.7982 15.0607 28 9.5C25.7982 3.93933 20.3636 0 14 0Z" fill="white"/>
</svg>
