<svg width="32" height="32" viewBox="0 0 32 32" fill="none" xmlns="http://www.w3.org/2000/svg">
<g clip-path="url(#clip0_701_2351)">
<path d="M21.3334 4C22.3537 3.99994 23.3354 4.38977 24.0778 5.08971C24.8201 5.78966 25.2669 6.74681 25.3267 7.76533L25.3334 8V21.3333H26.3334C27.1961 21.3333 27.9067 21.9893 27.9921 22.8293L28.0001 23V25.3333C28.0001 26.3536 27.6103 27.3354 26.9104 28.0777C26.2104 28.82 25.2533 29.2668 24.2347 29.3267L24.0001 29.3333H10.6667C9.64647 29.3334 8.66473 28.9436 7.9224 28.2436C7.18007 27.5437 6.73327 26.5865 6.67341 25.568L6.66675 25.3333V12H4.33341C3.9208 12.0002 3.52279 11.8473 3.21639 11.571C2.91 11.2946 2.717 10.9144 2.67475 10.504L2.66675 10.3333V8C2.66669 6.97972 3.05651 5.99798 3.75646 5.25565C4.4564 4.51332 5.41356 4.06652 6.43208 4.00667L6.66675 4H21.3334ZM25.3334 24H13.3334V25.3333C13.3334 25.8 13.2534 26.2493 13.1067 26.6667H24.0001C24.3537 26.6667 24.6928 26.5262 24.9429 26.2761C25.1929 26.0261 25.3334 25.687 25.3334 25.3333V24ZM16.0001 16H13.3334C12.9936 16.0004 12.6667 16.1305 12.4196 16.3638C12.1725 16.5971 12.0238 16.9159 12.0039 17.2552C11.9839 17.5944 12.0943 17.9285 12.3124 18.1891C12.5306 18.4497 12.84 18.6172 13.1774 18.6573L13.3334 18.6667H16.0001C16.3399 18.6663 16.6668 18.5362 16.9139 18.3029C17.161 18.0696 17.3097 17.7507 17.3296 17.4115C17.3496 17.0722 17.2392 16.7382 17.0211 16.4776C16.8029 16.217 16.4935 16.0495 16.1561 16.0093L16.0001 16ZM18.6667 10.6667H13.3334C12.9798 10.6667 12.6407 10.8071 12.3906 11.0572C12.1406 11.3072 12.0001 11.6464 12.0001 12C12.0001 12.3536 12.1406 12.6928 12.3906 12.9428C12.6407 13.1929 12.9798 13.3333 13.3334 13.3333H18.6667C19.0204 13.3333 19.3595 13.1929 19.6096 12.9428C19.8596 12.6928 20.0001 12.3536 20.0001 12C20.0001 11.6464 19.8596 11.3072 19.6096 11.0572C19.3595 10.8071 19.0204 10.6667 18.6667 10.6667ZM6.66675 6.66667C6.31313 6.66667 5.97399 6.80714 5.72394 7.05719C5.47389 7.30724 5.33341 7.64638 5.33341 8V9.33333H6.66675V6.66667Z" fill="white"/>
</g>
<defs>
<clipPath id="clip0_701_2351">
<rect width="32" height="32" fill="white"/>
</clipPath>
</defs>
</svg>
