<svg width="24" height="19" viewBox="0 0 24 19" fill="none" xmlns="http://www.w3.org/2000/svg">
<path d="M9.48 1.46892C7.78641 0.660328 5.41922 0.264234 2.25 0.250172C1.95111 0.246111 1.65809 0.333266 1.41 0.500015C1.20637 0.637654 1.03968 0.823222 0.924597 1.0404C0.809512 1.25757 0.749555 1.4997 0.750002 1.74548V15.1564C0.750002 16.063 1.395 16.7469 2.25 16.7469C5.58141 16.7469 8.92313 17.0581 10.9247 18.95C10.9521 18.976 10.9865 18.9934 11.0237 19C11.0608 19.0066 11.0991 19.0021 11.1338 18.9871C11.1685 18.9722 11.1979 18.9473 11.2186 18.9157C11.2393 18.8841 11.2502 18.8471 11.25 18.8094V3.00736C11.2501 2.90074 11.2273 2.79535 11.1831 2.69831C11.139 2.60127 11.0745 2.51484 10.9941 2.44486C10.5356 2.05291 10.0263 1.72463 9.48 1.46892ZM22.59 0.498609C22.3418 0.332275 22.0488 0.245606 21.75 0.250172C18.5808 0.264234 16.2136 0.658453 14.52 1.46892C13.9737 1.72417 13.4643 2.0518 13.0055 2.44298C12.9252 2.51309 12.8609 2.59955 12.8168 2.69657C12.7728 2.7936 12.75 2.89893 12.75 3.00548V18.8085C12.75 18.8447 12.7607 18.8802 12.7807 18.9104C12.8008 18.9407 12.8293 18.9643 12.8628 18.9784C12.8962 18.9924 12.9331 18.9963 12.9687 18.9895C13.0044 18.9827 13.0372 18.9656 13.0631 18.9402C14.2664 17.7449 16.3781 16.7455 21.7519 16.746C22.1497 16.746 22.5312 16.5879 22.8125 16.3066C23.0938 16.0253 23.2519 15.6438 23.2519 15.246V1.74595C23.2524 1.49968 23.1923 1.25707 23.0769 1.03953C22.9615 0.821985 22.7942 0.636212 22.59 0.498609Z" fill="white"/>
</svg>
