<svg width="18" height="20" viewBox="0 0 18 20" fill="none" xmlns="http://www.w3.org/2000/svg">
<path d="M9.6 0.2C9.4269 0.0701779 9.21637 0 9 0C8.78363 0 8.5731 0.0701779 8.4 0.2C7.98308 0.518804 7.59886 0.878235 7.253 1.273C6.73 1.862 6 2.855 6 4C6 4.79565 6.31607 5.55871 6.87868 6.12132C7.44129 6.68393 8.20435 7 9 7H3C2.20435 7 1.44129 7.31607 0.87868 7.87868C0.316071 8.44129 0 9.20435 0 10V12C0 13.236 1.411 13.942 2.4 13.2L3.067 12.7C3.2401 12.5702 3.45063 12.5 3.667 12.5C3.88337 12.5 4.0939 12.5702 4.267 12.7L4.533 12.9C5.05229 13.2895 5.68389 13.5 6.333 13.5C6.98211 13.5 7.61371 13.2895 8.133 12.9L8.4 12.7C8.5731 12.5702 8.78363 12.5 9 12.5C9.21637 12.5 9.4269 12.5702 9.6 12.7L9.867 12.9C10.3863 13.2895 11.0179 13.5 11.667 13.5C12.3161 13.5 12.9477 13.2895 13.467 12.9L13.733 12.7C13.9061 12.5702 14.1166 12.5 14.333 12.5C14.5494 12.5 14.7599 12.5702 14.933 12.7L15.6 13.2C16.589 13.942 18 13.236 18 12V10C18 9.20435 17.6839 8.44129 17.1213 7.87868C16.5587 7.31607 15.7956 7 15 7H9C9.79565 7 10.5587 6.68393 11.1213 6.12132C11.6839 5.55871 12 4.79565 12 4C12 2.855 11.27 1.862 10.747 1.273C10.401 0.883 10.017 0.513 9.6 0.2ZM1 15.415V18C1 18.5304 1.21071 19.0391 1.58579 19.4142C1.96086 19.7893 2.46957 20 3 20H15C15.5304 20 16.0391 19.7893 16.4142 19.4142C16.7893 19.0391 17 18.5304 17 18V15.415C16.7673 15.4993 16.5172 15.5238 16.2725 15.4863C16.0279 15.4487 15.7967 15.3503 15.6 15.2L14.933 14.7C14.7599 14.5702 14.5494 14.5 14.333 14.5C14.1166 14.5 13.9061 14.5702 13.733 14.7L13.467 14.9C12.9477 15.2895 12.3161 15.5 11.667 15.5C11.0179 15.5 10.3863 15.2895 9.867 14.9L9.6 14.7C9.4269 14.5702 9.21637 14.5 9 14.5C8.78363 14.5 8.5731 14.5702 8.4 14.7L8.133 14.9C7.61371 15.2895 6.98211 15.5 6.333 15.5C5.68389 15.5 5.05229 15.2895 4.533 14.9L4.267 14.7C4.0939 14.5702 3.88337 14.5 3.667 14.5C3.45063 14.5 3.2401 14.5702 3.067 14.7L2.4 15.2C2.20334 15.3503 1.97208 15.4487 1.72745 15.4863C1.48283 15.5238 1.23268 15.4993 1 15.415Z" fill="white"/>
</svg>
