<svg width="20" height="16" viewBox="0 0 20 16" fill="none" xmlns="http://www.w3.org/2000/svg">
<path d="M1.69021 5.12C1.60715 5.03088 1.50649 4.95997 1.3946 4.91177C1.28272 4.86358 1.16204 4.83914 1.04021 4.84C0.630215 4.84 0.320215 5.03 0.120215 5.42C-0.0797854 5.81 -0.0297853 6.18 0.290215 6.53C1.47021 7.59 2.22021 8.34 2.54021 8.78C2.95021 9.34 3.15021 10.16 3.15021 11.22C3.15021 12.53 3.65021 13.5 4.65021 14.17C5.21021 14.61 5.82021 14.94 6.50021 15.16V11.27C6.50021 10.33 6.17021 9.55 5.54021 8.92M14.4602 8.97C13.8402 9.59 13.5002 10.36 13.5002 11.27V15.2C14.4602 14.86 15.2602 14.33 15.9202 13.63C16.5702 12.93 16.9002 12.16 16.9002 11.22C16.9002 10.09 17.0902 9.28 17.4702 8.78C17.5602 8.62 17.7302 8.42 18.0002 8.17C18.2302 7.92 18.4702 7.68 18.7102 7.46C18.9402 7.25 19.1702 7.03 19.3902 6.81L19.7202 6.53C19.8096 6.44504 19.8806 6.34262 19.9288 6.22908C19.9769 6.11555 20.0013 5.99333 20.0002 5.87C20.0002 5.59 19.9102 5.34 19.7202 5.14C19.5302 4.94 19.3002 4.84 19.0002 4.84C18.7002 4.84 18.5002 4.93 18.3102 5.12M10.0002 16C10.6902 16 11.3602 15.91 12.0002 15.72V12.15C12.0002 11.56 11.8202 11.1 11.4102 10.66C11.0002 10.22 10.5302 10 10.0002 10C9.47021 10 9.00021 10.2 8.62021 10.61C8.22021 11 8.00021 11.46 8.00021 12.06V15.72C8.64021 15.91 9.31021 16 10.0002 16ZM7.00021 4.5C7.00021 5.33 6.33021 6 5.50021 6C4.67021 6 4.00021 5.33 4.00021 4.5C4.00021 3.67 4.67021 3 5.50021 3C6.33021 3 7.00021 3.67 7.00021 4.5ZM16.0002 4.5C16.0002 5.33 15.3302 6 14.5002 6C13.6702 6 13.0002 5.33 13.0002 4.5C13.0002 3.67 13.6702 3 14.5002 3C15.3302 3 16.0002 3.67 16.0002 4.5ZM11.5002 1.5C11.5002 2.33 10.8302 3 10.0002 3C9.17021 3 8.50021 2.33 8.50021 1.5C8.50021 0.67 9.17021 0 10.0002 0C10.8302 0 11.5002 0.67 11.5002 1.5ZM11.5002 7C11.5002 7.83 10.8302 8.5 10.0002 8.5C9.17021 8.5 8.50021 7.83 8.50021 7C8.50021 6.17 9.17021 5.5 10.0002 5.5C10.8302 5.5 11.5002 6.17 11.5002 7Z" fill="white"/>
</svg>
