<svg width="36" height="20" viewBox="0 0 36 20" fill="none" xmlns="http://www.w3.org/2000/svg">
<g style="mix-blend-mode:plus-lighter" clip-path="url(#clip0_678_1697)">
<path d="M17.9937 0.00162299V4.00162V4L13.9953 8L11.9953 10.0008H7.99854L9.99693 8L11.9953 6.00081L9.99693 4L7.99854 1.99919H11.9953L13.9953 4L15.9938 1.99919L17.9937 0V0.00162299Z" fill="#E9E9E9"/>
<path d="M17.9936 8.00162V8L15.9951 10.0008H17.9936V8.00162Z" fill="#E9E9E9"/>
<path d="M5.99827 7.99919L7.99828 6V2L3.99987 6L1.99986 7.99919L0.00146484 10H3.99987L5.99827 7.99919Z" fill="#E9E9E9"/>
<path d="M17.9937 15.9992V19.9992L15.9938 17.9984L13.9953 15.9992L11.9953 17.9984H7.99854L11.9953 14L9.99693 11.9992L7.99854 10H11.9953L13.9953 11.9992L15.9938 14L17.9937 15.9992Z" fill="#E9E9E9"/>
<path d="M17.9937 11.9992V10H15.9952H15.9937L17.9937 11.9992Z" fill="#E9E9E9"/>
<path d="M2.00001 11.9992L4.00003 14L5.99841 15.9992L7.99843 18V14L4.00003 10H0.0016208H0L2.00001 11.9992Z" fill="#E9E9E9"/>
<path d="M25.9921 15.9992L27.9888 17.9984H23.992L21.9937 15.9992L19.9936 18L17.9952 19.9992H17.9937V15.9992H17.9952L23.992 10H27.9888L25.9921 12.0008L23.992 14L25.9921 15.9992Z" fill="#E9E9E9"/>
<path d="M17.9937 11.9992L17.9952 12.0008L19.9936 10H17.9937V11.9992Z" fill="#E9E9E9"/>
<path d="M35.9871 10L33.9887 12.0008L31.9887 14L27.992 17.9984L27.9902 18V14L29.9903 12.0008L31.9887 10H35.9871Z" fill="#E9E9E9"/>
<path d="M27.9904 2.00081L23.992 6.00081L25.9921 8L27.9904 10.0008H27.9888H23.992L21.9937 8L19.9936 6.00081L17.9952 4L17.9937 4.00162V0.00162299L17.9952 0L19.9936 2.00081L21.9937 4L23.992 2.00081L23.9937 1.99919H27.9904V2.00081Z" fill="#E9E9E9"/>
<path d="M17.9952 8.00195H17.9937V10.0011H19.9936L17.9952 8.00195Z" fill="#E9E9E9"/>
<path d="M33.9887 7.99919L31.9887 6L29.9903 3.99919L27.9902 2V6L31.9887 10H35.9871L33.9887 7.99919Z" fill="#E9E9E9"/>
</g>
<defs>
<clipPath id="clip0_678_1697">
<rect width="36" height="20" fill="white"/>
</clipPath>
</defs>
</svg>
