<svg width="20" height="20" viewBox="0 0 20 20" fill="none" xmlns="http://www.w3.org/2000/svg">
<path d="M9.75 0C7.82164 0 5.93657 0.571828 4.33319 1.64317C2.72982 2.71452 1.48013 4.23726 0.742179 6.01884C0.00422448 7.80042 -0.188858 9.76082 0.187348 11.6521C0.563554 13.5434 1.49215 15.2807 2.85571 16.6443C4.21928 18.0079 5.95656 18.9365 7.84787 19.3127C9.73919 19.6889 11.6996 19.4958 13.4812 18.7578C15.2627 18.0199 16.7855 16.7702 17.8568 15.1668C18.9282 13.5634 19.5 11.6784 19.5 9.75C19.4973 7.16498 18.4692 4.68661 16.6413 2.85872C14.8134 1.03084 12.335 0.00272983 9.75 0ZM10.5 3.69187L12.8241 2.09344C14.1547 2.62945 15.3234 3.50163 16.2159 4.62469L15.4659 7.15031C15.4472 7.15031 15.4275 7.15969 15.4088 7.16625L13.2694 7.86094C13.2373 7.8712 13.206 7.88373 13.1756 7.89844L10.5 6.05813V3.69187ZM6.67875 2.09344L9 3.69187V6.05813L6.3225 7.90219C6.29218 7.88748 6.26085 7.87495 6.22875 7.86469L4.08938 7.17C4.07063 7.16344 4.05094 7.15875 4.03219 7.15406L3.28219 4.62844C4.17555 3.50336 5.346 2.6298 6.67875 2.09344ZM5.46 14.1956H2.80313C2.02541 12.9864 1.57954 11.5939 1.51032 10.1578L3.57282 8.57531C3.59056 8.58316 3.60871 8.59004 3.62719 8.59594L5.7675 9.29156C5.79612 9.30021 5.82524 9.30709 5.85469 9.31219L6.86625 12.2578C6.85219 12.2747 6.83813 12.2916 6.825 12.3094L5.50313 14.1291C5.48756 14.1505 5.47316 14.1727 5.46 14.1956ZM11.8772 17.7188C10.4834 18.09 9.01665 18.09 7.62282 17.7188L6.67969 15.0563C6.69188 15.0413 6.705 15.0272 6.71625 15.0112L8.03907 13.1906C8.05463 13.1696 8.06902 13.1476 8.08219 13.125H11.4178C11.431 13.1476 11.4454 13.1696 11.4609 13.1906L12.7838 15.0112C12.795 15.0272 12.8081 15.0413 12.8203 15.0563L11.8772 17.7188ZM14.04 14.1928C14.0268 14.1699 14.0124 14.1476 13.9969 14.1262L12.6741 12.3094C12.6609 12.2916 12.6469 12.2747 12.6328 12.2578L13.6444 9.31219C13.6738 9.30709 13.703 9.30021 13.7316 9.29156L15.8719 8.59594C15.8904 8.59004 15.9085 8.58316 15.9263 8.57531L17.9888 10.1578C17.9195 11.5939 17.4737 12.9864 16.6959 14.1956L14.04 14.1928Z" fill="white"/>
</svg>
