<svg width="30" height="30" viewBox="0 0 30 30" fill="none" xmlns="http://www.w3.org/2000/svg">
<path d="M8.75 26.25V23.75H13.75V19.875C12.7292 19.6458 11.8179 19.2137 11.0162 18.5787C10.2146 17.9437 9.62583 17.1467 9.25 16.1875C7.6875 16 6.38042 15.3179 5.32875 14.1412C4.27708 12.9646 3.75083 11.5842 3.75 10V8.75C3.75 8.0625 3.995 7.47417 4.485 6.985C4.975 6.49583 5.56333 6.25083 6.25 6.25H8.75V3.75H21.25V6.25H23.75C24.4375 6.25 25.0263 6.495 25.5163 6.985C26.0063 7.475 26.2508 8.06333 26.25 8.75V10C26.25 11.5833 25.7237 12.9637 24.6712 14.1412C23.6187 15.3187 22.3117 16.0008 20.75 16.1875C20.375 17.1458 19.7867 17.9429 18.985 18.5787C18.1833 19.2146 17.2717 19.6467 16.25 19.875V23.75H21.25V26.25H8.75ZM8.75 13.5V8.75H6.25V10C6.25 10.7917 6.47917 11.5054 6.9375 12.1413C7.39583 12.7771 8 13.23 8.75 13.5ZM21.25 13.5C22 13.2292 22.6042 12.7758 23.0625 12.14C23.5208 11.5042 23.75 10.7908 23.75 10V8.75H21.25V13.5Z" fill="white"/>
</svg>
